<svg width="117" height="33" viewBox="0 0 117 33" fill="none" xmlns="http://www.w3.org/2000/svg">
<g filter="url(#filter0_i_4057_51)">
<path d="M24.5869 0H7.41312C3.31897 0 0 3.31897 0 7.41312V24.5869C0 28.681 3.31897 32 7.41312 32H24.5869C28.681 32 32 28.681 32 24.5869V7.41312C32 3.31897 28.681 0 24.5869 0Z" fill="black"/>
</g>
<path d="M23.0864 13.8846C23.0878 13.8841 23.0892 13.8839 23.0906 13.8842C23.0919 13.8846 23.0932 13.8853 23.0942 13.8864C23.0952 13.8874 23.0958 13.8888 23.096 13.8902C23.0963 13.8917 23.0961 13.8932 23.0955 13.8945C22.8179 14.4608 22.4564 14.9725 22.0111 15.4297C21.7929 15.6537 21.5331 15.8901 21.2316 16.1389C20.858 16.4476 20.4931 16.7083 20.0719 16.9276C19.426 17.2637 18.7417 17.5106 18.0191 17.6683C17.0799 17.8734 16.12 17.9555 15.1552 17.9985C15.1534 17.9983 15.1515 17.9989 15.1501 18.0001C15.1486 18.0013 15.1477 18.003 15.1476 18.0049C15.1474 18.0067 15.1479 18.0086 15.1491 18.01C15.1503 18.0115 15.1521 18.0124 15.1539 18.0126C15.5616 18.1097 15.9494 18.1942 16.3171 18.2663C17.1819 18.4359 18.0392 18.5112 18.8941 18.4956C18.8956 18.4957 18.897 18.4962 18.8982 18.4971C18.8994 18.4979 18.9004 18.4992 18.9009 18.5006C18.9013 18.502 18.9014 18.5035 18.901 18.505C18.9006 18.5064 18.8998 18.5077 18.8987 18.5087C18.6186 18.7358 18.3262 18.9442 18.0215 19.1337C16.8842 19.8419 15.5403 20.1288 14.2203 20.2417C13.5967 20.2948 12.9873 20.3324 12.3922 20.3546C12.3894 20.3546 12.3868 20.3556 12.3846 20.3573C12.3825 20.3591 12.3811 20.3616 12.3807 20.3643C12.3802 20.367 12.3807 20.3698 12.3822 20.3722C12.3836 20.3746 12.3858 20.3763 12.3885 20.3772C13.001 20.6175 13.69 20.7424 14.4309 20.8381C14.5313 20.851 14.6434 20.8601 14.7673 20.8654C14.7703 20.8654 14.7731 20.8666 14.7754 20.8685C14.7776 20.8705 14.7791 20.8732 14.7796 20.8761C14.7801 20.8791 14.7795 20.8821 14.778 20.8847C14.7765 20.8873 14.7742 20.8893 14.7714 20.8903C14.3161 21.0783 13.9158 21.1508 13.3966 21.1871C12.8205 21.2277 12.349 21.2636 11.982 21.2947C11.3468 21.3485 10.7554 21.4935 10.1758 21.7889C9.181 22.2956 8.50935 23.3058 8.08108 24.3144C8.02583 24.4443 7.97682 24.5831 7.93407 24.7307C7.87996 24.9167 7.83251 25.0515 7.79173 25.1352C7.7246 25.2726 7.62393 25.4171 7.48973 25.5687C7.14263 25.9615 6.86676 26.2778 6.66213 26.5177C6.65101 26.5308 6.63982 26.5413 6.62856 26.549C6.62723 26.55 6.62562 26.5505 6.62399 26.5505C6.62235 26.5504 6.62076 26.5499 6.61945 26.5489C6.61814 26.5479 6.61718 26.5465 6.61671 26.545C6.61624 26.5434 6.61628 26.5417 6.61683 26.5402C6.71445 26.2463 6.80363 25.9712 6.88436 25.7151C7.15099 24.87 7.49078 24.0076 7.90375 23.1278C8.12788 22.65 8.35864 22.2078 8.59603 21.801C8.92676 21.234 9.34216 20.6508 9.6772 20.0961C10.0741 19.4391 10.5006 18.8918 11.0106 18.3166C11.4461 17.8253 11.8905 17.3563 12.3439 16.9098C13.3191 15.9489 14.4131 15.111 15.626 14.3962C16.5169 13.8715 17.7161 13.2547 18.7 12.611C19.2107 12.2769 19.7678 11.9433 20.2326 11.6004C20.6494 11.2928 20.9999 11.0031 21.284 10.7314C21.4519 10.5708 21.5951 10.4112 21.7136 10.2524C21.7151 10.2504 21.7157 10.2478 21.7155 10.2453C21.7153 10.2428 21.7142 10.2404 21.7124 10.2386C21.7107 10.2368 21.7083 10.2357 21.7058 10.2354C21.7033 10.2352 21.7008 10.2358 21.6987 10.2372C20.9212 10.7993 20.1262 11.3121 19.2496 11.7607C18.9176 11.9304 18.1087 12.3473 16.8228 13.0114C15.3589 13.7671 13.9851 14.6078 12.6938 15.64C11.9374 16.2449 11.1987 16.9934 10.5539 17.7879C9.87839 18.6206 9.27751 19.4922 8.75123 20.4028C8.74556 20.4128 8.74041 20.4195 8.73579 20.423C8.73439 20.424 8.73273 20.4247 8.73098 20.4249C8.72924 20.4251 8.72748 20.4248 8.72589 20.424C8.7243 20.4233 8.72294 20.4221 8.72197 20.4206C8.721 20.4192 8.72045 20.4175 8.72037 20.4157C8.69736 20.037 8.68481 19.6839 8.68273 19.3565C8.68062 19.0452 8.7016 18.6192 8.69705 18.2928C8.69648 18.2513 8.71033 17.9766 8.73862 17.469C8.75442 17.1829 8.81897 16.7766 8.85257 16.5816C9.0573 15.3988 9.49535 14.3004 10.2642 13.393C10.4705 13.1496 10.6742 12.933 10.8754 12.7431C10.8771 12.7416 10.8791 12.7406 10.8814 12.7403C10.8836 12.74 10.8859 12.7403 10.8879 12.7413C10.8899 12.7423 10.8916 12.7439 10.8927 12.7459C10.8939 12.7478 10.8944 12.7501 10.8942 12.7523C10.7906 13.6972 10.7902 14.6608 11.0143 15.5811C11.015 15.5835 11.0164 15.5856 11.0184 15.5871C11.0204 15.5886 11.0229 15.5894 11.0253 15.5893C11.0278 15.5893 11.0301 15.5884 11.0319 15.5868C11.0338 15.5852 11.035 15.583 11.0353 15.5805C11.068 15.4026 11.1306 15.1019 11.1713 14.8415C11.2115 14.5853 11.2484 14.3854 11.2822 14.2417C11.464 13.4693 11.8091 12.7908 12.3173 12.2064C12.5251 11.9674 12.7871 11.7129 13.1033 11.4426C13.791 10.8549 14.5777 10.4536 15.4231 10.1128C16.0234 9.87075 16.5862 9.6583 17.1114 9.47543C18.2537 9.0775 19.3226 8.69017 20.3182 8.31342C20.7171 8.16249 21.1409 7.98658 21.5895 7.7857C22.7959 7.24571 23.9199 6.49104 24.5629 5.31359C24.5637 5.31204 24.565 5.31076 24.5665 5.3099C24.568 5.30904 24.5698 5.30864 24.5715 5.30874C24.5733 5.30884 24.575 5.30944 24.5765 5.31047C24.578 5.31149 24.5792 5.31291 24.5799 5.31455C24.9305 6.14132 25.133 7.07543 25.0904 7.96116C25.0737 8.30834 25.0447 8.61198 25.0036 8.87207C24.8537 9.81898 24.5337 10.7359 24.0336 11.529C23.5868 12.2376 23.0048 12.8016 22.2874 13.221C22.1949 13.2751 21.9677 13.3985 21.6058 13.5912C21.338 13.7339 21.1046 13.8456 20.9055 13.9264C20.3058 14.1701 19.6141 14.3538 18.9894 14.4586C18.9864 14.4592 18.9829 14.4607 18.979 14.4631C18.9747 14.4661 18.9715 14.4685 18.9696 14.4703C18.9688 14.4711 18.9682 14.4722 18.9679 14.4734C18.9676 14.4746 18.9676 14.4758 18.968 14.477C18.9684 14.4782 18.9692 14.4792 18.9701 14.4799C18.9711 14.4807 18.9722 14.4812 18.9734 14.4813C19.6399 14.5379 20.2893 14.522 20.9216 14.4336C21.6191 14.336 22.4174 14.1457 23.0864 13.8846Z" fill="white"/>
<path d="M23.0864 13.8846C23.0878 13.8841 23.0892 13.8839 23.0906 13.8842C23.0919 13.8846 23.0932 13.8853 23.0942 13.8864C23.0952 13.8874 23.0958 13.8888 23.096 13.8902C23.0963 13.8917 23.0961 13.8932 23.0955 13.8945C22.8179 14.4608 22.4564 14.9725 22.0111 15.4297C21.7929 15.6537 21.5331 15.8901 21.2316 16.1389C20.858 16.4476 20.4931 16.7083 20.0719 16.9276C19.426 17.2637 18.7417 17.5106 18.0191 17.6683C17.0799 17.8734 16.12 17.9555 15.1552 17.9985C15.1534 17.9983 15.1515 17.9989 15.1501 18.0001C15.1486 18.0013 15.1477 18.003 15.1476 18.0049C15.1474 18.0067 15.1479 18.0086 15.1491 18.01C15.1503 18.0115 15.1521 18.0124 15.1539 18.0126C15.5616 18.1097 15.9494 18.1942 16.3171 18.2663C17.1819 18.4359 18.0392 18.5112 18.8941 18.4956C18.8956 18.4957 18.897 18.4962 18.8982 18.4971C18.8994 18.4979 18.9004 18.4992 18.9009 18.5006C18.9013 18.502 18.9014 18.5035 18.901 18.505C18.9006 18.5064 18.8998 18.5077 18.8987 18.5087C18.6186 18.7358 18.3262 18.9442 18.0215 19.1337C16.8842 19.8419 15.5403 20.1288 14.2203 20.2417C13.5967 20.2948 12.9873 20.3324 12.3922 20.3546C12.3894 20.3546 12.3868 20.3556 12.3846 20.3573C12.3825 20.3591 12.3811 20.3616 12.3807 20.3643C12.3802 20.367 12.3807 20.3698 12.3822 20.3722C12.3836 20.3746 12.3858 20.3763 12.3885 20.3772C13.001 20.6175 13.69 20.7424 14.4309 20.8381C14.5313 20.851 14.6434 20.8601 14.7673 20.8654C14.7703 20.8654 14.7731 20.8666 14.7754 20.8685C14.7776 20.8705 14.7791 20.8732 14.7796 20.8761C14.7801 20.8791 14.7795 20.8821 14.778 20.8847C14.7765 20.8873 14.7742 20.8893 14.7714 20.8903C14.3161 21.0783 13.9158 21.1508 13.3966 21.1871C12.8205 21.2277 12.349 21.2636 11.982 21.2947C11.3468 21.3485 10.7554 21.4935 10.1758 21.7889C9.181 22.2956 8.50935 23.3058 8.08108 24.3144C8.02583 24.4443 7.97682 24.5831 7.93407 24.7307C7.87996 24.9167 7.83251 25.0515 7.79173 25.1352C7.7246 25.2726 7.62393 25.4171 7.48973 25.5687C7.14263 25.9615 6.86676 26.2778 6.66213 26.5177C6.65101 26.5308 6.63982 26.5413 6.62856 26.549C6.62723 26.55 6.62562 26.5505 6.62399 26.5505C6.62235 26.5504 6.62076 26.5499 6.61945 26.5489C6.61814 26.5479 6.61718 26.5465 6.61671 26.545C6.61624 26.5434 6.61628 26.5417 6.61683 26.5402C6.71445 26.2463 6.80363 25.9712 6.88436 25.7151C7.15099 24.87 7.49078 24.0076 7.90375 23.1278C8.12788 22.65 8.35864 22.2078 8.59603 21.801C8.92676 21.234 9.34216 20.6508 9.6772 20.0961C10.0741 19.4391 10.5006 18.8918 11.0106 18.3166C11.4461 17.8253 11.8905 17.3563 12.3439 16.9098C13.3191 15.9489 14.4131 15.111 15.626 14.3962C16.5169 13.8715 17.7161 13.2547 18.7 12.611C19.2107 12.2769 19.7678 11.9433 20.2326 11.6004C20.6494 11.2928 20.9999 11.0031 21.284 10.7314C21.4519 10.5708 21.5951 10.4112 21.7136 10.2524C21.7151 10.2504 21.7157 10.2478 21.7155 10.2453C21.7153 10.2428 21.7142 10.2404 21.7124 10.2386C21.7107 10.2368 21.7083 10.2357 21.7058 10.2354C21.7033 10.2352 21.7008 10.2358 21.6987 10.2372C20.9212 10.7993 20.1262 11.3121 19.2496 11.7607C18.9176 11.9304 18.1087 12.3473 16.8228 13.0114C15.3589 13.7671 13.9851 14.6078 12.6938 15.64C11.9374 16.2449 11.1987 16.9934 10.5539 17.7879C9.87839 18.6206 9.27751 19.4922 8.75123 20.4028C8.74556 20.4128 8.74041 20.4195 8.73579 20.423C8.73439 20.424 8.73273 20.4247 8.73098 20.4249C8.72924 20.4251 8.72748 20.4248 8.72589 20.424C8.7243 20.4233 8.72294 20.4221 8.72197 20.4206C8.721 20.4192 8.72045 20.4175 8.72037 20.4157C8.69736 20.037 8.68481 19.6839 8.68273 19.3565C8.68062 19.0452 8.7016 18.6192 8.69705 18.2928C8.69648 18.2513 8.71033 17.9766 8.73862 17.469C8.75442 17.1829 8.81897 16.7766 8.85257 16.5816C9.0573 15.3988 9.49535 14.3004 10.2642 13.393C10.4705 13.1496 10.6742 12.933 10.8754 12.7431C10.8771 12.7416 10.8791 12.7406 10.8814 12.7403C10.8836 12.74 10.8859 12.7403 10.8879 12.7413C10.8899 12.7423 10.8916 12.7439 10.8927 12.7459C10.8939 12.7478 10.8944 12.7501 10.8942 12.7523C10.7906 13.6972 10.7902 14.6608 11.0143 15.5811C11.015 15.5835 11.0164 15.5856 11.0184 15.5871C11.0204 15.5886 11.0229 15.5894 11.0253 15.5893C11.0278 15.5893 11.0301 15.5884 11.0319 15.5868C11.0338 15.5852 11.035 15.583 11.0353 15.5805C11.068 15.4026 11.1306 15.1019 11.1713 14.8415C11.2115 14.5853 11.2484 14.3854 11.2822 14.2417C11.464 13.4693 11.8091 12.7908 12.3173 12.2064C12.5251 11.9674 12.7871 11.7129 13.1033 11.4426C13.791 10.8549 14.5777 10.4536 15.4231 10.1128C16.0234 9.87075 16.5862 9.6583 17.1114 9.47543C18.2537 9.0775 19.3226 8.69017 20.3182 8.31342C20.7171 8.16249 21.1409 7.98658 21.5895 7.7857C22.7959 7.24571 23.9199 6.49104 24.5629 5.31359C24.5637 5.31204 24.565 5.31076 24.5665 5.3099C24.568 5.30904 24.5698 5.30864 24.5715 5.30874C24.5733 5.30884 24.575 5.30944 24.5765 5.31047C24.578 5.31149 24.5792 5.31291 24.5799 5.31455C24.9305 6.14132 25.133 7.07543 25.0904 7.96116C25.0737 8.30834 25.0447 8.61198 25.0036 8.87207C24.8537 9.81898 24.5337 10.7359 24.0336 11.529C23.5868 12.2376 23.0048 12.8016 22.2874 13.221C22.1949 13.2751 21.9677 13.3985 21.6058 13.5912C21.338 13.7339 21.1046 13.8456 20.9055 13.9264C20.3058 14.1701 19.6141 14.3538 18.9894 14.4586C18.9864 14.4592 18.9829 14.4607 18.979 14.4631C18.9747 14.4661 18.9715 14.4685 18.9696 14.4703C18.9688 14.4711 18.9682 14.4722 18.9679 14.4734C18.9676 14.4746 18.9676 14.4758 18.968 14.477C18.9684 14.4782 18.9692 14.4792 18.9701 14.4799C18.9711 14.4807 18.9722 14.4812 18.9734 14.4813C19.6399 14.5379 20.2893 14.522 20.9216 14.4336C21.6191 14.336 22.4174 14.1457 23.0864 13.8846Z" fill="url(#paint0_linear_4057_51)"/>
<path d="M39.9393 25.2681V7.93529H51.9014V11.0601H41.5994L43.65 8.93619V16.8702L41.5994 15.259H51.462V18.335H41.5994L43.65 16.7237V25.2681H39.9393ZM57.4182 25.2681C56.3441 25.2681 55.5059 24.9995 54.9037 24.4625C54.3016 23.9254 54.0005 23.0547 54.0005 21.8503V7.93529H57.6623V21.4597C57.6623 21.8503 57.7518 22.127 57.9309 22.2898C58.1099 22.4525 58.3703 22.5339 58.7121 22.5339H59.5909V25.2681H57.4182ZM67.347 25.561C66.0124 25.561 64.8488 25.2843 63.856 24.731C62.8632 24.1614 62.0902 23.3639 61.5368 22.3386C60.9835 21.3133 60.7068 20.1089 60.7068 18.7256C60.7068 17.3422 60.9835 16.146 61.5368 15.1369C62.0902 14.1116 62.8632 13.3141 63.856 12.7445C64.8488 12.1749 66.0124 11.8901 67.347 11.8901C68.6815 11.8901 69.8452 12.1749 70.8379 12.7445C71.8307 13.3141 72.6038 14.1116 73.1571 15.1369C73.7105 16.146 73.9871 17.3422 73.9871 18.7256C73.9871 20.1089 73.7105 21.3133 73.1571 22.3386C72.6038 23.3639 71.8307 24.1614 70.8379 24.731C69.8452 25.2843 68.6815 25.561 67.347 25.561ZM67.347 22.7536C68.2584 22.7536 68.9663 22.4037 69.4708 21.7039C69.9754 20.9878 70.2276 19.995 70.2276 18.7256C70.2276 17.4561 69.9754 16.4715 69.4708 15.7717C68.9663 15.0556 68.2584 14.6975 67.347 14.6975C66.4356 14.6975 65.7276 15.0556 65.2231 15.7717C64.7186 16.4715 64.4663 17.4561 64.4663 18.7256C64.4663 19.995 64.7186 20.9878 65.2231 21.7039C65.7276 22.4037 66.4356 22.7536 67.347 22.7536ZM78.5734 25.2681L74.6919 12.183H78.3781L80.6241 21.0447L83.0409 12.183H86.0192L88.436 21.0447L90.7064 12.183H94.3926L90.5111 25.2681H86.9469L84.53 17.0899L82.1132 25.2681H78.5734ZM96.2691 25.2681V12.183H99.931V25.2681H96.2691ZM96.1959 10.5718V7.64234H99.9798V10.5718H96.1959ZM108.487 25.561C107.136 25.561 106.005 25.3739 105.094 24.9995C104.182 24.6089 103.483 24.0881 102.994 23.4371C102.522 22.7699 102.254 22.0049 102.189 21.1424L105.899 21.0203C106.013 21.6388 106.274 22.1189 106.681 22.4606C107.088 22.8024 107.69 22.9733 108.487 22.9733C109.138 22.9733 109.643 22.8675 110.001 22.6559C110.375 22.4444 110.562 22.1189 110.562 21.6794C110.562 21.4028 110.497 21.1749 110.367 20.9959C110.237 20.8006 109.976 20.6379 109.586 20.5077C109.211 20.3612 108.65 20.231 107.901 20.1171C106.518 19.8729 105.436 19.5881 104.654 19.2626C103.873 18.9371 103.32 18.514 102.994 17.9932C102.669 17.4724 102.506 16.8377 102.506 16.089C102.506 14.8358 102.986 13.8268 103.946 13.0619C104.923 12.2807 106.38 11.8901 108.316 11.8901C109.553 11.8901 110.587 12.0854 111.417 12.476C112.263 12.8666 112.914 13.4037 113.37 14.0872C113.842 14.7545 114.135 15.5194 114.248 16.382L110.562 16.5284C110.513 16.1053 110.383 15.7472 110.172 15.4543C109.976 15.1451 109.724 14.9091 109.415 14.7463C109.106 14.5673 108.731 14.4778 108.292 14.4778C107.641 14.4778 107.136 14.6161 106.778 14.8928C106.437 15.1532 106.266 15.5031 106.266 15.9425C106.266 16.268 106.339 16.5366 106.485 16.7482C106.648 16.9435 106.908 17.1062 107.267 17.2364C107.625 17.3666 108.105 17.4724 108.707 17.5538C110.107 17.7491 111.213 18.0257 112.027 18.3838C112.857 18.7256 113.451 19.1568 113.809 19.6776C114.167 20.1984 114.346 20.8413 114.346 21.6062C114.346 22.4525 114.102 23.1686 113.614 23.7545C113.125 24.3404 112.442 24.788 111.563 25.0972C110.701 25.4064 109.675 25.561 108.487 25.561Z" fill="black"/>
<defs>
<filter id="filter0_i_4057_51" x="0" y="0" width="32" height="32.1441" filterUnits="userSpaceOnUse" color-interpolation-filters="sRGB">
<feFlood flood-opacity="0" result="BackgroundImageFix"/>
<feBlend mode="normal" in="SourceGraphic" in2="BackgroundImageFix" result="shape"/>
<feColorMatrix in="SourceAlpha" type="matrix" values="0 0 0 0 0 0 0 0 0 0 0 0 0 0 0 0 0 0 127 0" result="hardAlpha"/>
<feOffset dy="0.720721"/>
<feGaussianBlur stdDeviation="0.0720721"/>
<feComposite in2="hardAlpha" operator="arithmetic" k2="-1" k3="1"/>
<feColorMatrix type="matrix" values="0 0 0 0 0.431373 0 0 0 0 0.431373 0 0 0 0 0.431373 0 0 0 1 0"/>
<feBlend mode="normal" in2="shape" result="effect1_innerShadow_4057_51"/>
</filter>
<linearGradient id="paint0_linear_4057_51" x1="17.057" y1="4.59753" x2="14.9051" y2="27.3342" gradientUnits="userSpaceOnUse">
<stop stop-color="#FEFEFE"/>
<stop offset="1" stop-color="#DEDEDE"/>
</linearGradient>
</defs>
</svg>
