<svg width="140" height="26" viewBox="0 0 140 26" fill="none" xmlns="http://www.w3.org/2000/svg">
<path d="M16.9051 12.8669C16.9063 13.7347 16.9066 15.0656 16.906 16.8597C16.906 16.8696 16.908 16.8794 16.9117 16.8885C16.9155 16.8976 16.9211 16.9059 16.9281 16.9129C16.9351 16.9199 16.9434 16.9255 16.9525 16.9293C16.9616 16.933 16.9714 16.935 16.9813 16.935C18.4945 16.9401 20.5772 16.9388 23.2292 16.9312C24.0567 16.9283 24.7564 17.4067 24.9919 18.2071C25.0402 18.3717 25.0643 18.6576 25.0643 19.0648C25.065 20.0292 25.0634 21.4465 25.0595 23.3168C25.0576 24.3431 24.274 25.1197 23.2521 25.1197C20.7964 25.1197 19.4106 25.1213 19.0948 25.1245C18.5819 25.1302 18.213 25.087 17.988 24.9949C17.538 24.8107 17.2092 24.4844 17.0013 24.0162C16.9016 23.792 16.8574 23.3733 16.8688 22.7603C16.8771 22.2952 16.878 20.39 16.8717 17.0446C16.8717 17.0276 16.865 17.0114 16.853 16.9994C16.841 16.9874 16.8248 16.9807 16.8078 16.9807L8.83539 16.955C8.82505 16.9549 8.81478 16.9568 8.80519 16.9607C8.79559 16.9647 8.78686 16.9705 8.7795 16.9778C8.77214 16.9852 8.7663 16.9939 8.76231 17.0036C8.75832 17.0133 8.75627 17.0236 8.75627 17.0341C8.75246 20.5644 8.75309 22.4153 8.75818 22.5868C8.77915 23.3066 8.73275 23.7923 8.61899 24.0439C8.39338 24.5458 8.0073 24.8818 7.46074 25.0521C7.14424 25.1502 6.67141 25.1188 6.23575 25.1207C5.10387 25.1258 3.80961 25.1239 2.35297 25.115C1.47213 25.1102 0.728557 24.5003 0.592236 23.6293C0.573805 23.5124 0.564908 23.2139 0.565544 22.7336C0.568086 21.2839 0.567767 20.147 0.564589 19.323C0.562683 18.8428 0.590329 18.4454 0.796241 18.0575C1.04664 17.5874 1.41429 17.2561 1.8992 17.0636C2.14134 16.9677 2.52679 16.9235 3.05555 16.9312C3.59766 16.9394 5.45754 16.9401 8.6352 16.9331C8.65728 16.9331 8.67848 16.9244 8.69418 16.9088C8.70989 16.8933 8.71884 16.8722 8.71909 16.8502C8.72417 15.5389 8.72576 14.2166 8.72386 12.8831C8.72259 12.0153 8.72227 10.684 8.7229 8.88935C8.72265 8.86955 8.71461 8.85065 8.70051 8.83674C8.68641 8.82283 8.6674 8.81502 8.64759 8.81502C7.13439 8.80994 5.05176 8.81121 2.39969 8.81884C1.57222 8.8217 0.872505 8.34332 0.637041 7.54286C0.58874 7.37832 0.564589 7.09244 0.564589 6.68521C0.563954 5.72084 0.565543 4.30351 0.569356 2.43322C0.571263 1.40691 1.35487 0.630271 2.37681 0.630271C4.8325 0.630271 6.21828 0.628678 6.53413 0.625501C7.04701 0.619784 7.41593 0.662988 7.64091 0.755105C8.09087 0.939339 8.41975 1.26556 8.62757 1.73376C8.72735 1.95802 8.77152 2.37668 8.76008 2.98973C8.75182 3.45476 8.75087 5.36 8.75722 8.70543C8.75722 8.72236 8.76395 8.7386 8.77593 8.75058C8.78791 8.76255 8.80415 8.76928 8.82109 8.76928L16.7935 8.79501C16.8039 8.79514 16.8141 8.79318 16.8237 8.78927C16.8333 8.78535 16.842 8.77955 16.8494 8.77219C16.8568 8.76483 16.8626 8.75607 16.8666 8.74641C16.8706 8.73675 16.8726 8.72638 16.8726 8.71591C16.8764 5.18561 16.8758 3.33469 16.8707 3.16317C16.8498 2.44338 16.8962 1.95771 17.0099 1.70613C17.2355 1.20425 17.6216 0.868183 18.1682 0.697925C18.4847 0.599773 18.9575 0.631223 19.3932 0.629317C20.525 0.624234 21.8193 0.62614 23.2759 0.635034C24.1568 0.639799 24.9003 1.24967 25.0367 2.12066C25.0551 2.23755 25.064 2.53614 25.0634 3.01642C25.0608 4.46615 25.0611 5.603 25.0643 6.42697C25.0662 6.90725 25.0386 7.30462 24.8327 7.69246C24.5823 8.16258 24.2146 8.49388 23.7297 8.68638C23.4876 8.78231 23.1021 8.82646 22.5734 8.81884C22.0312 8.81058 20.1714 8.80994 16.9937 8.81693C16.9716 8.81693 16.9504 8.82563 16.9347 8.84115C16.919 8.85667 16.9101 8.87776 16.9098 8.89983C16.9047 10.2111 16.9031 11.5334 16.9051 12.8669Z" fill="#AAAAAA"/>
<path d="M35.0355 20V5.8H37.6355V19.2L36.2155 17.74H44.3755V20H35.0355ZM50.5498 20.24C49.4964 20.24 48.5698 20.0133 47.7698 19.56C46.9831 19.0933 46.3698 18.44 45.9298 17.6C45.5031 16.76 45.2898 15.78 45.2898 14.66C45.2898 13.5267 45.5031 12.5467 45.9298 11.72C46.3698 10.88 46.9831 10.2333 47.7698 9.78C48.5698 9.31333 49.4964 9.08 50.5498 9.08C51.6031 9.08 52.5231 9.31333 53.3098 9.78C54.0964 10.2333 54.7031 10.88 55.1298 11.72C55.5698 12.5467 55.7898 13.5267 55.7898 14.66C55.7898 15.78 55.5698 16.76 55.1298 17.6C54.7031 18.44 54.0964 19.0933 53.3098 19.56C52.5231 20.0133 51.6031 20.24 50.5498 20.24ZM50.5498 18.16C51.3764 18.16 52.0098 17.8533 52.4498 17.24C52.9031 16.6267 53.1298 15.7667 53.1298 14.66C53.1298 13.5667 52.9031 12.7133 52.4498 12.1C52.0098 11.4733 51.3764 11.16 50.5498 11.16C49.7231 11.16 49.0831 11.4733 48.6298 12.1C48.1764 12.7133 47.9498 13.5667 47.9498 14.66C47.9498 15.7667 48.1764 16.6267 48.6298 17.24C49.0831 17.8533 49.7231 18.16 50.5498 18.16ZM62.3252 23.24C61.3919 23.24 60.5919 23.1133 59.9252 22.86C59.2586 22.6067 58.7186 22.2467 58.3052 21.78C57.9052 21.3267 57.6252 20.8 57.4652 20.2L60.1052 20.02C60.2386 20.42 60.4652 20.7333 60.7852 20.96C61.1186 21.1867 61.6319 21.3 62.3252 21.3C63.1119 21.3 63.7186 21.12 64.1452 20.76C64.5719 20.4133 64.7852 19.8667 64.7852 19.12V17.76C64.5319 18.28 64.1252 18.7 63.5652 19.02C63.0052 19.3267 62.3786 19.48 61.6852 19.48C60.8052 19.48 60.0186 19.2667 59.3252 18.84C58.6452 18.4 58.1119 17.7933 57.7252 17.02C57.3386 16.2333 57.1452 15.3267 57.1452 14.3C57.1452 13.2733 57.3319 12.3733 57.7052 11.6C58.0919 10.8133 58.6252 10.2 59.3052 9.76C59.9852 9.30667 60.7652 9.08 61.6452 9.08C62.4186 9.08 63.0852 9.25333 63.6452 9.6C64.2052 9.94667 64.6119 10.4067 64.8652 10.98V9.32H67.3652V19.06C67.3652 19.9667 67.1519 20.7333 66.7252 21.36C66.3119 21.9867 65.7252 22.4533 64.9652 22.76C64.2186 23.08 63.3386 23.24 62.3252 23.24ZM62.2852 17.48C63.0452 17.48 63.6519 17.2 64.1052 16.64C64.5586 16.0667 64.7919 15.28 64.8052 14.28C64.8186 13.6133 64.7186 13.0467 64.5052 12.58C64.3052 12.1 64.0119 11.7333 63.6252 11.48C63.2519 11.2133 62.8052 11.08 62.2852 11.08C61.4986 11.08 60.8852 11.3733 60.4452 11.96C60.0186 12.5333 59.8052 13.3067 59.8052 14.28C59.8052 15.2533 60.0252 16.0333 60.4652 16.62C60.9186 17.1933 61.5252 17.48 62.2852 17.48ZM74.6123 20.24C73.5589 20.24 72.6323 20.0133 71.8323 19.56C71.0456 19.0933 70.4323 18.44 69.9923 17.6C69.5656 16.76 69.3523 15.78 69.3523 14.66C69.3523 13.5267 69.5656 12.5467 69.9923 11.72C70.4323 10.88 71.0456 10.2333 71.8323 9.78C72.6323 9.31333 73.5589 9.08 74.6123 9.08C75.6656 9.08 76.5856 9.31333 77.3723 9.78C78.1589 10.2333 78.7656 10.88 79.1923 11.72C79.6323 12.5467 79.8523 13.5267 79.8523 14.66C79.8523 15.78 79.6323 16.76 79.1923 17.6C78.7656 18.44 78.1589 19.0933 77.3723 19.56C76.5856 20.0133 75.6656 20.24 74.6123 20.24ZM74.6123 18.16C75.4389 18.16 76.0723 17.8533 76.5123 17.24C76.9656 16.6267 77.1923 15.7667 77.1923 14.66C77.1923 13.5667 76.9656 12.7133 76.5123 12.1C76.0723 11.4733 75.4389 11.16 74.6123 11.16C73.7856 11.16 73.1456 11.4733 72.6923 12.1C72.2389 12.7133 72.0123 13.5667 72.0123 14.66C72.0123 15.7667 72.2389 16.6267 72.6923 17.24C73.1456 17.8533 73.7856 18.16 74.6123 18.16ZM81.8277 20V9.32H84.3877V20H81.8277ZM81.7877 7.9V5.62H84.4477V7.9H81.7877ZM87.3551 23V9.32H89.8151L89.8751 11.6L89.6151 11.48C89.8817 10.6933 90.3151 10.1 90.9151 9.7C91.5284 9.28667 92.2417 9.08 93.0551 9.08C94.0684 9.08 94.9084 9.33333 95.5751 9.84C96.2551 10.3467 96.7617 11.02 97.0951 11.86C97.4284 12.7 97.5951 13.6333 97.5951 14.66C97.5951 15.6867 97.4217 16.62 97.0751 17.46C96.7417 18.3 96.2351 18.9733 95.5551 19.48C94.8884 19.9867 94.0484 20.24 93.0351 20.24C92.5017 20.24 92.0017 20.1467 91.5351 19.96C91.0817 19.7733 90.6884 19.5067 90.3551 19.16C90.0351 18.8133 89.8084 18.4067 89.6751 17.94L89.9151 17.74V23H87.3551ZM92.4351 18.16C93.2084 18.16 93.8151 17.8533 94.2551 17.24C94.7084 16.6133 94.9351 15.7533 94.9351 14.66C94.9351 13.5667 94.7084 12.7133 94.2551 12.1C93.8151 11.4733 93.2084 11.16 92.4351 11.16C91.9151 11.16 91.4684 11.2933 91.0951 11.56C90.7217 11.8133 90.4284 12.2 90.2151 12.72C90.0151 13.24 89.9151 13.8867 89.9151 14.66C89.9151 15.4333 90.0151 16.08 90.2151 16.6C90.4151 17.12 90.7017 17.5133 91.0751 17.78C91.4617 18.0333 91.9151 18.16 92.4351 18.16ZM103.922 20.24C102.868 20.24 101.982 20.0867 101.262 19.78C100.555 19.4733 100.008 19.0467 99.6216 18.5C99.235 17.9533 99.015 17.3333 98.9616 16.64L101.582 16.52C101.675 17.08 101.908 17.5133 102.282 17.82C102.655 18.1267 103.208 18.28 103.942 18.28C104.542 18.28 105.008 18.1867 105.342 18C105.688 17.8 105.862 17.4933 105.862 17.08C105.862 16.84 105.802 16.64 105.682 16.48C105.562 16.32 105.335 16.18 105.002 16.06C104.668 15.94 104.175 15.82 103.522 15.7C102.428 15.5133 101.568 15.2867 100.942 15.02C100.315 14.74 99.8683 14.3933 99.6016 13.98C99.3483 13.5667 99.2216 13.0533 99.2216 12.44C99.2216 11.44 99.6016 10.6333 100.362 10.02C101.135 9.39333 102.262 9.08 103.742 9.08C104.702 9.08 105.508 9.24 106.162 9.56C106.815 9.86667 107.322 10.2933 107.682 10.84C108.055 11.3733 108.288 11.9867 108.382 12.68L105.802 12.8C105.735 12.44 105.615 12.1267 105.442 11.86C105.268 11.5933 105.035 11.3933 104.742 11.26C104.448 11.1133 104.102 11.04 103.702 11.04C103.102 11.04 102.648 11.16 102.342 11.4C102.035 11.64 101.882 11.96 101.882 12.36C101.882 12.64 101.948 12.8733 102.082 13.06C102.228 13.2467 102.462 13.4 102.782 13.52C103.102 13.6267 103.528 13.7267 104.062 13.82C105.182 13.9933 106.062 14.22 106.702 14.5C107.355 14.7667 107.815 15.1133 108.082 15.54C108.362 15.9533 108.502 16.4533 108.502 17.04C108.502 17.72 108.308 18.3 107.922 18.78C107.548 19.26 107.015 19.6267 106.322 19.88C105.642 20.12 104.842 20.24 103.922 20.24ZM114.02 20.24C112.94 20.24 112.08 19.8867 111.44 19.18C110.813 18.46 110.5 17.4667 110.5 16.2V9.32H113.06V15.56C113.06 16.4533 113.206 17.1133 113.5 17.54C113.806 17.9533 114.266 18.16 114.88 18.16C115.573 18.16 116.106 17.9333 116.48 17.48C116.866 17.0133 117.06 16.34 117.06 15.46V9.32H119.62V20H117.28L117.22 17.06L117.54 17.16C117.38 18.1733 117 18.94 116.4 19.46C115.8 19.98 115.006 20.24 114.02 20.24ZM122.433 20V9.32H124.753L124.833 11.94L124.593 11.82C124.713 11.2467 124.92 10.76 125.213 10.36C125.52 9.94667 125.887 9.63333 126.313 9.42C126.753 9.19333 127.233 9.08 127.753 9.08C128.66 9.08 129.393 9.34 129.953 9.86C130.513 10.3667 130.867 11.0667 131.013 11.96H130.673C130.793 11.3333 131 10.8133 131.293 10.4C131.587 9.97333 131.953 9.64667 132.393 9.42C132.847 9.19333 133.353 9.08 133.913 9.08C134.647 9.08 135.28 9.24 135.813 9.56C136.347 9.86667 136.753 10.32 137.033 10.92C137.327 11.52 137.473 12.26 137.473 13.14V20H134.913V13.8C134.913 12.92 134.76 12.26 134.453 11.82C134.16 11.38 133.707 11.16 133.093 11.16C132.68 11.16 132.327 11.2667 132.033 11.48C131.74 11.6933 131.513 12.0067 131.353 12.42C131.207 12.82 131.133 13.3067 131.133 13.88V20H128.753V13.88C128.753 13 128.62 12.3267 128.353 11.86C128.087 11.3933 127.627 11.16 126.973 11.16C126.56 11.16 126.207 11.2667 125.913 11.48C125.633 11.6933 125.407 12.0067 125.233 12.42C125.073 12.82 124.993 13.3067 124.993 13.88V20H122.433Z" fill="#AAAAAA"/>
</svg>
