<svg width="140" height="26" viewBox="0 0 140 26" fill="none" xmlns="http://www.w3.org/2000/svg">
<path d="M35.0922 20V5.8H37.6922V19.2L36.2722 17.74H44.4322V20H35.0922ZM50.6064 20.24C49.5531 20.24 48.6264 20.0133 47.8264 19.56C47.0397 19.0933 46.4264 18.44 45.9864 17.6C45.5597 16.76 45.3464 15.78 45.3464 14.66C45.3464 13.5267 45.5597 12.5467 45.9864 11.72C46.4264 10.88 47.0397 10.2333 47.8264 9.78C48.6264 9.31333 49.5531 9.08 50.6064 9.08C51.6597 9.08 52.5797 9.31333 53.3664 9.78C54.1531 10.2333 54.7597 10.88 55.1864 11.72C55.6264 12.5467 55.8464 13.5267 55.8464 14.66C55.8464 15.78 55.6264 16.76 55.1864 17.6C54.7597 18.44 54.1531 19.0933 53.3664 19.56C52.5797 20.0133 51.6597 20.24 50.6064 20.24ZM50.6064 18.16C51.4331 18.16 52.0664 17.8533 52.5064 17.24C52.9597 16.6267 53.1864 15.7667 53.1864 14.66C53.1864 13.5667 52.9597 12.7133 52.5064 12.1C52.0664 11.4733 51.4331 11.16 50.6064 11.16C49.7797 11.16 49.1397 11.4733 48.6864 12.1C48.2331 12.7133 48.0064 13.5667 48.0064 14.66C48.0064 15.7667 48.2331 16.6267 48.6864 17.24C49.1397 17.8533 49.7797 18.16 50.6064 18.16ZM62.3819 23.24C61.4485 23.24 60.6485 23.1133 59.9819 22.86C59.3152 22.6067 58.7752 22.2467 58.3619 21.78C57.9619 21.3267 57.6819 20.8 57.5219 20.2L60.1619 20.02C60.2952 20.42 60.5219 20.7333 60.8419 20.96C61.1752 21.1867 61.6885 21.3 62.3819 21.3C63.1685 21.3 63.7752 21.12 64.2019 20.76C64.6285 20.4133 64.8419 19.8667 64.8419 19.12V17.76C64.5885 18.28 64.1819 18.7 63.6219 19.02C63.0619 19.3267 62.4352 19.48 61.7419 19.48C60.8619 19.48 60.0752 19.2667 59.3819 18.84C58.7019 18.4 58.1685 17.7933 57.7819 17.02C57.3952 16.2333 57.2019 15.3267 57.2019 14.3C57.2019 13.2733 57.3885 12.3733 57.7619 11.6C58.1485 10.8133 58.6819 10.2 59.3619 9.76C60.0419 9.30667 60.8219 9.08 61.7019 9.08C62.4752 9.08 63.1419 9.25333 63.7019 9.6C64.2619 9.94667 64.6685 10.4067 64.9219 10.98V9.32H67.4219V19.06C67.4219 19.9667 67.2085 20.7333 66.7819 21.36C66.3685 21.9867 65.7819 22.4533 65.0219 22.76C64.2752 23.08 63.3952 23.24 62.3819 23.24ZM62.3419 17.48C63.1019 17.48 63.7085 17.2 64.1619 16.64C64.6152 16.0667 64.8485 15.28 64.8619 14.28C64.8752 13.6133 64.7752 13.0467 64.5619 12.58C64.3619 12.1 64.0685 11.7333 63.6819 11.48C63.3085 11.2133 62.8619 11.08 62.3419 11.08C61.5552 11.08 60.9419 11.3733 60.5019 11.96C60.0752 12.5333 59.8619 13.3067 59.8619 14.28C59.8619 15.2533 60.0819 16.0333 60.5219 16.62C60.9752 17.1933 61.5819 17.48 62.3419 17.48ZM74.6689 20.24C73.6156 20.24 72.6889 20.0133 71.8889 19.56C71.1022 19.0933 70.4889 18.44 70.0489 17.6C69.6222 16.76 69.4089 15.78 69.4089 14.66C69.4089 13.5267 69.6222 12.5467 70.0489 11.72C70.4889 10.88 71.1022 10.2333 71.8889 9.78C72.6889 9.31333 73.6156 9.08 74.6689 9.08C75.7222 9.08 76.6422 9.31333 77.4289 9.78C78.2156 10.2333 78.8222 10.88 79.2489 11.72C79.6889 12.5467 79.9089 13.5267 79.9089 14.66C79.9089 15.78 79.6889 16.76 79.2489 17.6C78.8222 18.44 78.2156 19.0933 77.4289 19.56C76.6422 20.0133 75.7222 20.24 74.6689 20.24ZM74.6689 18.16C75.4956 18.16 76.1289 17.8533 76.5689 17.24C77.0222 16.6267 77.2489 15.7667 77.2489 14.66C77.2489 13.5667 77.0222 12.7133 76.5689 12.1C76.1289 11.4733 75.4956 11.16 74.6689 11.16C73.8422 11.16 73.2022 11.4733 72.7489 12.1C72.2956 12.7133 72.0689 13.5667 72.0689 14.66C72.0689 15.7667 72.2956 16.6267 72.7489 17.24C73.2022 17.8533 73.8422 18.16 74.6689 18.16ZM81.8844 20V9.32H84.4444V20H81.8844ZM81.8444 7.9V5.62H84.5044V7.9H81.8444ZM87.4117 23V9.32H89.8717L89.9317 11.6L89.6717 11.48C89.9384 10.6933 90.3717 10.1 90.9717 9.7C91.5851 9.28667 92.2984 9.08 93.1117 9.08C94.1251 9.08 94.9651 9.33333 95.6317 9.84C96.3117 10.3467 96.8184 11.02 97.1517 11.86C97.4851 12.7 97.6517 13.6333 97.6517 14.66C97.6517 15.6867 97.4784 16.62 97.1317 17.46C96.7984 18.3 96.2917 18.9733 95.6117 19.48C94.9451 19.9867 94.1051 20.24 93.0917 20.24C92.5584 20.24 92.0584 20.1467 91.5917 19.96C91.1384 19.7733 90.7451 19.5067 90.4117 19.16C90.0917 18.8133 89.8651 18.4067 89.7317 17.94L89.9717 17.74V23H87.4117ZM92.4917 18.16C93.2651 18.16 93.8717 17.8533 94.3117 17.24C94.7651 16.6133 94.9917 15.7533 94.9917 14.66C94.9917 13.5667 94.7651 12.7133 94.3117 12.1C93.8717 11.4733 93.2651 11.16 92.4917 11.16C91.9717 11.16 91.5251 11.2933 91.1517 11.56C90.7784 11.8133 90.4851 12.2 90.2717 12.72C90.0717 13.24 89.9717 13.8867 89.9717 14.66C89.9717 15.4333 90.0717 16.08 90.2717 16.6C90.4717 17.12 90.7584 17.5133 91.1317 17.78C91.5184 18.0333 91.9717 18.16 92.4917 18.16ZM103.978 20.24C102.925 20.24 102.038 20.0867 101.318 19.78C100.612 19.4733 100.065 19.0467 99.6783 18.5C99.2916 17.9533 99.0716 17.3333 99.0183 16.64L101.638 16.52C101.732 17.08 101.965 17.5133 102.338 17.82C102.712 18.1267 103.265 18.28 103.998 18.28C104.598 18.28 105.065 18.1867 105.398 18C105.745 17.8 105.918 17.4933 105.918 17.08C105.918 16.84 105.858 16.64 105.738 16.48C105.618 16.32 105.392 16.18 105.058 16.06C104.725 15.94 104.232 15.82 103.578 15.7C102.485 15.5133 101.625 15.2867 100.998 15.02C100.372 14.74 99.9249 14.3933 99.6583 13.98C99.4049 13.5667 99.2783 13.0533 99.2783 12.44C99.2783 11.44 99.6583 10.6333 100.418 10.02C101.192 9.39333 102.318 9.08 103.798 9.08C104.758 9.08 105.565 9.24 106.218 9.56C106.872 9.86667 107.378 10.2933 107.738 10.84C108.112 11.3733 108.345 11.9867 108.438 12.68L105.858 12.8C105.792 12.44 105.672 12.1267 105.498 11.86C105.325 11.5933 105.092 11.3933 104.798 11.26C104.505 11.1133 104.158 11.04 103.758 11.04C103.158 11.04 102.705 11.16 102.398 11.4C102.092 11.64 101.938 11.96 101.938 12.36C101.938 12.64 102.005 12.8733 102.138 13.06C102.285 13.2467 102.518 13.4 102.838 13.52C103.158 13.6267 103.585 13.7267 104.118 13.82C105.238 13.9933 106.118 14.22 106.758 14.5C107.412 14.7667 107.872 15.1133 108.138 15.54C108.418 15.9533 108.558 16.4533 108.558 17.04C108.558 17.72 108.365 18.3 107.978 18.78C107.605 19.26 107.072 19.6267 106.378 19.88C105.698 20.12 104.898 20.24 103.978 20.24ZM114.076 20.24C112.996 20.24 112.136 19.8867 111.496 19.18C110.87 18.46 110.556 17.4667 110.556 16.2V9.32H113.116V15.56C113.116 16.4533 113.263 17.1133 113.556 17.54C113.863 17.9533 114.323 18.16 114.936 18.16C115.63 18.16 116.163 17.9333 116.536 17.48C116.923 17.0133 117.116 16.34 117.116 15.46V9.32H119.676V20H117.336L117.276 17.06L117.596 17.16C117.436 18.1733 117.056 18.94 116.456 19.46C115.856 19.98 115.063 20.24 114.076 20.24ZM122.49 20V9.32H124.81L124.89 11.94L124.65 11.82C124.77 11.2467 124.977 10.76 125.27 10.36C125.577 9.94667 125.943 9.63333 126.37 9.42C126.81 9.19333 127.29 9.08 127.81 9.08C128.717 9.08 129.45 9.34 130.01 9.86C130.57 10.3667 130.923 11.0667 131.07 11.96H130.73C130.85 11.3333 131.057 10.8133 131.35 10.4C131.643 9.97333 132.01 9.64667 132.45 9.42C132.903 9.19333 133.41 9.08 133.97 9.08C134.703 9.08 135.337 9.24 135.87 9.56C136.403 9.86667 136.81 10.32 137.09 10.92C137.383 11.52 137.53 12.26 137.53 13.14V20H134.97V13.8C134.97 12.92 134.817 12.26 134.51 11.82C134.217 11.38 133.763 11.16 133.15 11.16C132.737 11.16 132.383 11.2667 132.09 11.48C131.797 11.6933 131.57 12.0067 131.41 12.42C131.263 12.82 131.19 13.3067 131.19 13.88V20H128.81V13.88C128.81 13 128.677 12.3267 128.41 11.86C128.143 11.3933 127.683 11.16 127.03 11.16C126.617 11.16 126.263 11.2667 125.97 11.48C125.69 11.6933 125.463 12.0067 125.29 12.42C125.13 12.82 125.05 13.3067 125.05 13.88V20H122.49Z" fill="#AAAAAA"/>
<path d="M8.37022 12.0929C10.4639 14.1874 13.4286 15.5872 16.4352 15.2073C16.4403 15.2064 16.4455 15.2072 16.4501 15.2095C16.4547 15.2118 16.4584 15.2156 16.4607 15.2202C16.4631 15.2248 16.4638 15.23 16.4629 15.2351C16.462 15.2402 16.4595 15.2448 16.4557 15.2484L11.7884 19.9114C11.772 19.9277 11.7522 19.9401 11.7304 19.9475C11.7086 19.9549 11.6854 19.9572 11.6626 19.9542C8.80659 19.5931 6.20982 18.3243 4.17433 16.2879C2.13799 14.2524 0.869974 11.6548 0.508908 8.7988C0.50614 8.77609 0.508634 8.75302 0.516198 8.73136C0.523763 8.70971 0.536196 8.69005 0.552545 8.67389L5.21646 4.00655C5.22005 4.00315 5.22461 4.00095 5.22951 4.00024C5.23441 3.99954 5.23941 4.00037 5.24382 4.00262C5.24823 4.00487 5.25183 4.00843 5.25413 4.01281C5.25643 4.01719 5.25731 4.02218 5.25667 4.02709C4.87678 7.03369 6.27655 9.99836 8.37022 12.0929Z" fill="#AAAAAA"/>
<path d="M21.3454 10.3365C23.3792 12.3712 24.6464 14.9679 25.0066 17.8222C25.0095 17.8449 25.0071 17.8679 24.9997 17.8896C24.9923 17.9112 24.98 17.9309 24.9638 17.9471L20.3016 22.6102C20.2981 22.6135 20.2936 22.6157 20.2888 22.6164C20.284 22.6171 20.2791 22.6164 20.2747 22.6142C20.2704 22.6121 20.2667 22.6087 20.2644 22.6044C20.262 22.6002 20.2609 22.5954 20.2614 22.5905C20.6413 19.5848 19.2432 16.6218 17.1513 14.5281C15.0584 12.4345 12.0963 11.0347 9.09059 11.4137C9.08575 11.4142 9.08089 11.4131 9.07666 11.4108C9.07243 11.4084 9.06903 11.4048 9.0669 11.4004C9.06476 11.396 9.064 11.3911 9.06471 11.3863C9.06543 11.3815 9.06759 11.3771 9.07091 11.3735L13.7365 6.71389C13.7528 6.6977 13.7725 6.68542 13.7941 6.67801C13.8158 6.67059 13.8388 6.66823 13.8614 6.67111C16.7158 7.03218 19.3117 8.30104 21.3454 10.3365Z" fill="#AAAAAA"/>
</svg>
