<svg width="140" height="26" viewBox="0 0 140 26" fill="none" xmlns="http://www.w3.org/2000/svg">
<path d="M25.0312 12.875C25.0312 16.1239 23.7406 19.2397 21.4433 21.5371C19.146 23.8344 16.0301 25.125 12.7812 25.125C9.53234 25.125 6.41651 23.8344 4.11919 21.5371C1.82187 19.2397 0.53125 16.1239 0.53125 12.875C0.53125 11.2663 0.848105 9.67337 1.46373 8.18713C2.07935 6.70089 2.98168 5.35046 4.11919 4.21294C6.41651 1.91562 9.53234 0.625 12.7812 0.625C14.3899 0.625 15.9829 0.941856 17.4691 1.55748C18.9554 2.1731 20.3058 3.07543 21.4433 4.21294C22.5808 5.35046 23.4832 6.70089 24.0988 8.18713C24.7144 9.67337 25.0312 11.2663 25.0312 12.875ZM4.94933 6.75608C4.94933 6.77478 4.96928 6.80875 5.00917 6.858C6.92695 9.21898 9.73955 10.6028 12.7812 10.6028C15.822 10.6028 18.6346 9.21898 20.5515 6.858C20.592 6.80875 20.6122 6.77478 20.6122 6.75608C20.6122 6.73862 20.592 6.70527 20.5515 6.65603C18.6346 4.29504 15.8211 2.91118 12.7803 2.91118C9.73956 2.91212 6.92695 4.29504 5.00917 6.65696C4.96928 6.70621 4.94933 6.73925 4.94933 6.75608ZM11.9444 12.8787C11.9444 12.875 11.9419 12.8728 11.9369 12.8722C8.68047 12.6042 5.94546 11.2814 3.7319 8.90387C3.72669 8.89836 3.72021 8.89419 3.71304 8.89175C3.70587 8.8893 3.69823 8.88865 3.69081 8.88986C3.68339 8.89106 3.67643 8.89408 3.67054 8.89865C3.66466 8.90322 3.66004 8.90919 3.6571 8.91603C3.10729 10.1821 2.83239 11.502 2.83239 12.8759C2.83239 14.2498 3.10761 15.5698 3.65803 16.8358C3.66103 16.8425 3.66563 16.8483 3.67144 16.8527C3.67725 16.8572 3.68409 16.8601 3.69136 16.8613C3.69864 16.8625 3.70613 16.8619 3.7132 16.8596C3.72026 16.8573 3.72668 16.8533 3.7319 16.848C5.94546 14.4705 8.68047 13.1474 11.9369 12.8787C11.9419 12.8781 11.9444 12.8781 11.9444 12.8787ZM13.576 12.8741C13.576 12.8778 13.5788 12.88 13.5845 12.8806C16.8602 13.1493 19.6117 14.4792 21.839 16.8704C21.8443 16.8759 21.8508 16.88 21.8581 16.8824C21.8653 16.8848 21.8729 16.8854 21.8804 16.8841C21.8878 16.8828 21.8948 16.8797 21.9006 16.875C21.9064 16.8703 21.911 16.8643 21.9138 16.8573C22.4667 15.5838 22.7429 14.2561 22.7423 12.8741C22.7416 11.4921 22.4646 10.1643 21.911 8.89078C21.9081 8.88394 21.9034 8.87797 21.8976 8.87341C21.8917 8.86884 21.8847 8.86582 21.8773 8.86461C21.8699 8.8634 21.8623 8.86405 21.8551 8.8665C21.8479 8.86895 21.8414 8.87311 21.8362 8.87863C19.6108 11.2711 16.8602 12.6029 13.5845 12.8741C13.5788 12.8747 13.576 12.8747 13.576 12.8741ZM20.6122 18.993C20.6122 18.9743 20.5923 18.9403 20.5524 18.8911C18.6346 16.531 15.822 15.1481 12.7822 15.149C9.74236 15.149 6.92975 16.5329 5.01291 18.8939C4.97302 18.9431 4.95307 18.9771 4.95307 18.9958C4.95307 19.0126 4.97302 19.0457 5.01291 19.0949C6.93069 21.4559 9.74329 22.8388 12.7831 22.8379C15.8239 22.8379 18.6356 21.454 20.5524 19.093C20.5923 19.0438 20.6122 19.0104 20.6122 18.993Z" fill="#AAAAAA"/>
<path d="M35.0668 20V5.8H37.6668V19.2L36.2468 17.74H44.4068V20H35.0668ZM50.581 20.24C49.5277 20.24 48.601 20.0133 47.801 19.56C47.0143 19.0933 46.401 18.44 45.961 17.6C45.5343 16.76 45.321 15.78 45.321 14.66C45.321 13.5267 45.5343 12.5467 45.961 11.72C46.401 10.88 47.0143 10.2333 47.801 9.78C48.601 9.31333 49.5277 9.08 50.581 9.08C51.6343 9.08 52.5543 9.31333 53.341 9.78C54.1277 10.2333 54.7343 10.88 55.161 11.72C55.601 12.5467 55.821 13.5267 55.821 14.66C55.821 15.78 55.601 16.76 55.161 17.6C54.7343 18.44 54.1277 19.0933 53.341 19.56C52.5543 20.0133 51.6343 20.24 50.581 20.24ZM50.581 18.16C51.4077 18.16 52.041 17.8533 52.481 17.24C52.9343 16.6267 53.161 15.7667 53.161 14.66C53.161 13.5667 52.9343 12.7133 52.481 12.1C52.041 11.4733 51.4077 11.16 50.581 11.16C49.7543 11.16 49.1143 11.4733 48.661 12.1C48.2077 12.7133 47.981 13.5667 47.981 14.66C47.981 15.7667 48.2077 16.6267 48.661 17.24C49.1143 17.8533 49.7543 18.16 50.581 18.16ZM62.3565 23.24C61.4232 23.24 60.6232 23.1133 59.9565 22.86C59.2898 22.6067 58.7498 22.2467 58.3365 21.78C57.9365 21.3267 57.6565 20.8 57.4965 20.2L60.1365 20.02C60.2698 20.42 60.4965 20.7333 60.8165 20.96C61.1498 21.1867 61.6632 21.3 62.3565 21.3C63.1432 21.3 63.7498 21.12 64.1765 20.76C64.6032 20.4133 64.8165 19.8667 64.8165 19.12V17.76C64.5632 18.28 64.1565 18.7 63.5965 19.02C63.0365 19.3267 62.4098 19.48 61.7165 19.48C60.8365 19.48 60.0498 19.2667 59.3565 18.84C58.6765 18.4 58.1432 17.7933 57.7565 17.02C57.3698 16.2333 57.1765 15.3267 57.1765 14.3C57.1765 13.2733 57.3632 12.3733 57.7365 11.6C58.1232 10.8133 58.6565 10.2 59.3365 9.76C60.0165 9.30667 60.7965 9.08 61.6765 9.08C62.4498 9.08 63.1165 9.25333 63.6765 9.6C64.2365 9.94667 64.6432 10.4067 64.8965 10.98V9.32H67.3965V19.06C67.3965 19.9667 67.1832 20.7333 66.7565 21.36C66.3432 21.9867 65.7565 22.4533 64.9965 22.76C64.2498 23.08 63.3698 23.24 62.3565 23.24ZM62.3165 17.48C63.0765 17.48 63.6832 17.2 64.1365 16.64C64.5898 16.0667 64.8232 15.28 64.8365 14.28C64.8498 13.6133 64.7498 13.0467 64.5365 12.58C64.3365 12.1 64.0432 11.7333 63.6565 11.48C63.2832 11.2133 62.8365 11.08 62.3165 11.08C61.5298 11.08 60.9165 11.3733 60.4765 11.96C60.0498 12.5333 59.8365 13.3067 59.8365 14.28C59.8365 15.2533 60.0565 16.0333 60.4965 16.62C60.9498 17.1933 61.5565 17.48 62.3165 17.48ZM74.6435 20.24C73.5902 20.24 72.6635 20.0133 71.8635 19.56C71.0768 19.0933 70.4635 18.44 70.0235 17.6C69.5968 16.76 69.3835 15.78 69.3835 14.66C69.3835 13.5267 69.5968 12.5467 70.0235 11.72C70.4635 10.88 71.0768 10.2333 71.8635 9.78C72.6635 9.31333 73.5902 9.08 74.6435 9.08C75.6968 9.08 76.6168 9.31333 77.4035 9.78C78.1902 10.2333 78.7968 10.88 79.2235 11.72C79.6635 12.5467 79.8835 13.5267 79.8835 14.66C79.8835 15.78 79.6635 16.76 79.2235 17.6C78.7968 18.44 78.1902 19.0933 77.4035 19.56C76.6168 20.0133 75.6968 20.24 74.6435 20.24ZM74.6435 18.16C75.4702 18.16 76.1035 17.8533 76.5435 17.24C76.9968 16.6267 77.2235 15.7667 77.2235 14.66C77.2235 13.5667 76.9968 12.7133 76.5435 12.1C76.1035 11.4733 75.4702 11.16 74.6435 11.16C73.8168 11.16 73.1768 11.4733 72.7235 12.1C72.2702 12.7133 72.0435 13.5667 72.0435 14.66C72.0435 15.7667 72.2702 16.6267 72.7235 17.24C73.1768 17.8533 73.8168 18.16 74.6435 18.16ZM81.859 20V9.32H84.419V20H81.859ZM81.819 7.9V5.62H84.479V7.9H81.819ZM87.3863 23V9.32H89.8463L89.9063 11.6L89.6463 11.48C89.913 10.6933 90.3463 10.1 90.9463 9.7C91.5597 9.28667 92.273 9.08 93.0863 9.08C94.0997 9.08 94.9397 9.33333 95.6063 9.84C96.2863 10.3467 96.793 11.02 97.1263 11.86C97.4597 12.7 97.6263 13.6333 97.6263 14.66C97.6263 15.6867 97.453 16.62 97.1063 17.46C96.773 18.3 96.2663 18.9733 95.5863 19.48C94.9197 19.9867 94.0797 20.24 93.0663 20.24C92.533 20.24 92.033 20.1467 91.5663 19.96C91.113 19.7733 90.7197 19.5067 90.3863 19.16C90.0663 18.8133 89.8397 18.4067 89.7063 17.94L89.9463 17.74V23H87.3863ZM92.4663 18.16C93.2397 18.16 93.8463 17.8533 94.2863 17.24C94.7397 16.6133 94.9663 15.7533 94.9663 14.66C94.9663 13.5667 94.7397 12.7133 94.2863 12.1C93.8463 11.4733 93.2397 11.16 92.4663 11.16C91.9463 11.16 91.4997 11.2933 91.1263 11.56C90.753 11.8133 90.4597 12.2 90.2463 12.72C90.0463 13.24 89.9463 13.8867 89.9463 14.66C89.9463 15.4333 90.0463 16.08 90.2463 16.6C90.4463 17.12 90.733 17.5133 91.1063 17.78C91.493 18.0333 91.9463 18.16 92.4663 18.16ZM103.953 20.24C102.9 20.24 102.013 20.0867 101.293 19.78C100.586 19.4733 100.04 19.0467 99.6529 18.5C99.2662 17.9533 99.0462 17.3333 98.9929 16.64L101.613 16.52C101.706 17.08 101.94 17.5133 102.313 17.82C102.686 18.1267 103.24 18.28 103.973 18.28C104.573 18.28 105.04 18.1867 105.373 18C105.72 17.8 105.893 17.4933 105.893 17.08C105.893 16.84 105.833 16.64 105.713 16.48C105.593 16.32 105.366 16.18 105.033 16.06C104.7 15.94 104.206 15.82 103.553 15.7C102.46 15.5133 101.6 15.2867 100.973 15.02C100.346 14.74 99.8996 14.3933 99.6329 13.98C99.3796 13.5667 99.2529 13.0533 99.2529 12.44C99.2529 11.44 99.6329 10.6333 100.393 10.02C101.166 9.39333 102.293 9.08 103.773 9.08C104.733 9.08 105.54 9.24 106.193 9.56C106.846 9.86667 107.353 10.2933 107.713 10.84C108.086 11.3733 108.32 11.9867 108.413 12.68L105.833 12.8C105.766 12.44 105.646 12.1267 105.473 11.86C105.3 11.5933 105.066 11.3933 104.773 11.26C104.48 11.1133 104.133 11.04 103.733 11.04C103.133 11.04 102.68 11.16 102.373 11.4C102.066 11.64 101.913 11.96 101.913 12.36C101.913 12.64 101.98 12.8733 102.113 13.06C102.26 13.2467 102.493 13.4 102.813 13.52C103.133 13.6267 103.56 13.7267 104.093 13.82C105.213 13.9933 106.093 14.22 106.733 14.5C107.386 14.7667 107.846 15.1133 108.113 15.54C108.393 15.9533 108.533 16.4533 108.533 17.04C108.533 17.72 108.34 18.3 107.953 18.78C107.58 19.26 107.046 19.6267 106.353 19.88C105.673 20.12 104.873 20.24 103.953 20.24ZM114.051 20.24C112.971 20.24 112.111 19.8867 111.471 19.18C110.844 18.46 110.531 17.4667 110.531 16.2V9.32H113.091V15.56C113.091 16.4533 113.238 17.1133 113.531 17.54C113.838 17.9533 114.298 18.16 114.911 18.16C115.604 18.16 116.138 17.9333 116.511 17.48C116.898 17.0133 117.091 16.34 117.091 15.46V9.32H119.651V20H117.311L117.251 17.06L117.571 17.16C117.411 18.1733 117.031 18.94 116.431 19.46C115.831 19.98 115.038 20.24 114.051 20.24ZM122.464 20V9.32H124.784L124.864 11.94L124.624 11.82C124.744 11.2467 124.951 10.76 125.244 10.36C125.551 9.94667 125.918 9.63333 126.344 9.42C126.784 9.19333 127.264 9.08 127.784 9.08C128.691 9.08 129.424 9.34 129.984 9.86C130.544 10.3667 130.898 11.0667 131.044 11.96H130.704C130.824 11.3333 131.031 10.8133 131.324 10.4C131.618 9.97333 131.984 9.64667 132.424 9.42C132.878 9.19333 133.384 9.08 133.944 9.08C134.678 9.08 135.311 9.24 135.844 9.56C136.378 9.86667 136.784 10.32 137.064 10.92C137.358 11.52 137.504 12.26 137.504 13.14V20H134.944V13.8C134.944 12.92 134.791 12.26 134.484 11.82C134.191 11.38 133.738 11.16 133.124 11.16C132.711 11.16 132.358 11.2667 132.064 11.48C131.771 11.6933 131.544 12.0067 131.384 12.42C131.238 12.82 131.164 13.3067 131.164 13.88V20H128.784V13.88C128.784 13 128.651 12.3267 128.384 11.86C128.118 11.3933 127.658 11.16 127.004 11.16C126.591 11.16 126.238 11.2667 125.944 11.48C125.664 11.6933 125.438 12.0067 125.264 12.42C125.104 12.82 125.024 13.3067 125.024 13.88V20H122.464Z" fill="#AAAAAA"/>
</svg>
