<svg width="140" height="26" viewBox="0 0 140 26" fill="none" xmlns="http://www.w3.org/2000/svg">
<path d="M7.69328 1.00397C7.71123 0.99644 7.72542 0.999624 7.73584 1.01352C8.07397 1.48424 8.4176 1.92601 8.76673 2.33883C9.74986 3.49826 11.2376 4.16613 12.7652 4.16613C14.2929 4.16613 15.7815 3.49826 16.7638 2.33883C17.1135 1.92601 17.4571 1.48424 17.7946 1.01352C17.8051 0.999624 17.8195 0.99644 17.8381 1.00397C17.8566 1.01207 17.8644 1.02452 17.8615 1.04131C17.7677 1.61335 17.6985 2.16861 17.654 2.70707C17.5289 4.22171 18.1082 5.74677 19.1886 6.82716C20.269 7.90756 21.794 8.48684 23.3087 8.36178C23.8471 8.3172 24.4024 8.24801 24.9744 8.15421C24.9912 8.15132 25.0037 8.15914 25.0118 8.17766C25.0193 8.19619 25.0158 8.21037 25.0013 8.22022C24.5312 8.55835 24.0897 8.90227 23.6769 9.25198C22.5175 10.2342 21.8496 11.7228 21.8496 13.2505C21.8496 14.7782 22.5175 16.2659 23.6769 17.249C24.0897 17.5981 24.5312 17.9418 25.0013 18.2799C25.0158 18.2897 25.0193 18.3039 25.0118 18.3224C25.0037 18.341 24.9912 18.3488 24.9744 18.3459C24.4024 18.2521 23.8471 18.1829 23.3087 18.1383C21.794 18.0133 20.269 18.5934 19.1886 19.6738C18.1082 20.7542 17.5289 22.2784 17.654 23.793C17.6985 24.3321 17.7677 24.8873 17.8615 25.4588C17.8644 25.4762 17.8566 25.4886 17.8381 25.4961C17.8195 25.5037 17.8051 25.5005 17.7946 25.4866C17.4571 25.0159 17.1135 24.5744 16.7638 24.1621C15.7815 23.0027 14.2929 22.334 12.7652 22.334C11.2376 22.334 9.74986 23.0027 8.76673 24.1621C8.4176 24.5744 8.07397 25.0159 7.73584 25.4866C7.72542 25.5005 7.71123 25.5037 7.69328 25.4961C7.67476 25.4886 7.66694 25.4762 7.66983 25.4588C7.76305 24.8873 7.83224 24.3321 7.8774 23.793C8.00246 22.2784 7.42232 20.7542 6.34192 19.6738C5.26153 18.5934 3.73733 18.0133 2.22269 18.1383C1.68365 18.1829 1.12841 18.2521 0.556942 18.3459C0.539572 18.3488 0.527119 18.341 0.519592 18.3224C0.512065 18.3039 0.515249 18.2897 0.529144 18.2799C0.999864 17.9418 1.44134 17.5981 1.85359 17.249C3.01301 16.2659 3.68175 14.7782 3.68175 13.2505C3.68175 11.7228 3.01301 10.2342 1.85359 9.25198C1.44134 8.90227 0.999864 8.55835 0.529144 8.22022C0.515249 8.21037 0.512065 8.19619 0.519592 8.17766C0.527119 8.15914 0.539572 8.15132 0.556942 8.15421C1.12841 8.24801 1.68365 8.3172 2.22269 8.36178C3.73733 8.48684 5.26153 7.90756 6.34192 6.82716C7.42232 5.74677 8.00246 4.22171 7.8774 2.70707C7.83282 2.16803 7.76363 1.61278 7.66983 1.04131C7.66694 1.02452 7.67476 1.01207 7.69328 1.00397ZM19.232 13.2496C19.232 11.5345 18.5507 9.88969 17.3379 8.67694C16.1252 7.46419 14.4803 6.78287 12.7652 6.78287C11.0502 6.78287 9.40532 7.46419 8.19257 8.67694C6.97982 9.88969 6.2985 11.5345 6.2985 13.2496C6.2985 14.0988 6.46576 14.9397 6.79074 15.7243C7.11573 16.5089 7.59207 17.2218 8.19257 17.8223C8.79306 18.4228 9.50594 18.8991 10.2905 19.2241C11.0751 19.5491 11.916 19.7164 12.7652 19.7164C13.6145 19.7164 14.4554 19.5491 15.24 19.2241C16.0245 18.8991 16.7374 18.4228 17.3379 17.8223C17.9384 17.2218 18.4148 16.5089 18.7397 15.7243C19.0647 14.9397 19.232 14.0988 19.232 13.2496Z" fill="#AAAAAA"/>
<path d="M35.0844 20V5.8H37.6844V19.2L36.2644 17.74H44.4244V20H35.0844ZM50.5986 20.24C49.5453 20.24 48.6186 20.0133 47.8186 19.56C47.0319 19.0933 46.4186 18.44 45.9786 17.6C45.5519 16.76 45.3386 15.78 45.3386 14.66C45.3386 13.5267 45.5519 12.5467 45.9786 11.72C46.4186 10.88 47.0319 10.2333 47.8186 9.78C48.6186 9.31333 49.5453 9.08 50.5986 9.08C51.6519 9.08 52.5719 9.31333 53.3586 9.78C54.1453 10.2333 54.7519 10.88 55.1786 11.72C55.6186 12.5467 55.8386 13.5267 55.8386 14.66C55.8386 15.78 55.6186 16.76 55.1786 17.6C54.7519 18.44 54.1453 19.0933 53.3586 19.56C52.5719 20.0133 51.6519 20.24 50.5986 20.24ZM50.5986 18.16C51.4253 18.16 52.0586 17.8533 52.4986 17.24C52.9519 16.6267 53.1786 15.7667 53.1786 14.66C53.1786 13.5667 52.9519 12.7133 52.4986 12.1C52.0586 11.4733 51.4253 11.16 50.5986 11.16C49.7719 11.16 49.1319 11.4733 48.6786 12.1C48.2253 12.7133 47.9986 13.5667 47.9986 14.66C47.9986 15.7667 48.2253 16.6267 48.6786 17.24C49.1319 17.8533 49.7719 18.16 50.5986 18.16ZM62.3741 23.24C61.4407 23.24 60.6407 23.1133 59.9741 22.86C59.3074 22.6067 58.7674 22.2467 58.3541 21.78C57.9541 21.3267 57.6741 20.8 57.5141 20.2L60.1541 20.02C60.2874 20.42 60.5141 20.7333 60.8341 20.96C61.1674 21.1867 61.6807 21.3 62.3741 21.3C63.1607 21.3 63.7674 21.12 64.1941 20.76C64.6207 20.4133 64.8341 19.8667 64.8341 19.12V17.76C64.5807 18.28 64.1741 18.7 63.6141 19.02C63.0541 19.3267 62.4274 19.48 61.7341 19.48C60.8541 19.48 60.0674 19.2667 59.3741 18.84C58.6941 18.4 58.1607 17.7933 57.7741 17.02C57.3874 16.2333 57.1941 15.3267 57.1941 14.3C57.1941 13.2733 57.3807 12.3733 57.7541 11.6C58.1407 10.8133 58.6741 10.2 59.3541 9.76C60.0341 9.30667 60.8141 9.08 61.6941 9.08C62.4674 9.08 63.1341 9.25333 63.6941 9.6C64.2541 9.94667 64.6607 10.4067 64.9141 10.98V9.32H67.4141V19.06C67.4141 19.9667 67.2007 20.7333 66.7741 21.36C66.3607 21.9867 65.7741 22.4533 65.0141 22.76C64.2674 23.08 63.3874 23.24 62.3741 23.24ZM62.3341 17.48C63.0941 17.48 63.7007 17.2 64.1541 16.64C64.6074 16.0667 64.8407 15.28 64.8541 14.28C64.8674 13.6133 64.7674 13.0467 64.5541 12.58C64.3541 12.1 64.0607 11.7333 63.6741 11.48C63.3007 11.2133 62.8541 11.08 62.3341 11.08C61.5474 11.08 60.9341 11.3733 60.4941 11.96C60.0674 12.5333 59.8541 13.3067 59.8541 14.28C59.8541 15.2533 60.0741 16.0333 60.5141 16.62C60.9674 17.1933 61.5741 17.48 62.3341 17.48ZM74.6611 20.24C73.6078 20.24 72.6811 20.0133 71.8811 19.56C71.0944 19.0933 70.4811 18.44 70.0411 17.6C69.6144 16.76 69.4011 15.78 69.4011 14.66C69.4011 13.5267 69.6144 12.5467 70.0411 11.72C70.4811 10.88 71.0944 10.2333 71.8811 9.78C72.6811 9.31333 73.6078 9.08 74.6611 9.08C75.7144 9.08 76.6344 9.31333 77.4211 9.78C78.2078 10.2333 78.8144 10.88 79.2411 11.72C79.6811 12.5467 79.9011 13.5267 79.9011 14.66C79.9011 15.78 79.6811 16.76 79.2411 17.6C78.8144 18.44 78.2078 19.0933 77.4211 19.56C76.6344 20.0133 75.7144 20.24 74.6611 20.24ZM74.6611 18.16C75.4878 18.16 76.1211 17.8533 76.5611 17.24C77.0144 16.6267 77.2411 15.7667 77.2411 14.66C77.2411 13.5667 77.0144 12.7133 76.5611 12.1C76.1211 11.4733 75.4878 11.16 74.6611 11.16C73.8344 11.16 73.1944 11.4733 72.7411 12.1C72.2878 12.7133 72.0611 13.5667 72.0611 14.66C72.0611 15.7667 72.2878 16.6267 72.7411 17.24C73.1944 17.8533 73.8344 18.16 74.6611 18.16ZM81.8766 20V9.32H84.4366V20H81.8766ZM81.8366 7.9V5.62H84.4966V7.9H81.8366ZM87.4039 23V9.32H89.8639L89.9239 11.6L89.6639 11.48C89.9306 10.6933 90.3639 10.1 90.9639 9.7C91.5772 9.28667 92.2906 9.08 93.1039 9.08C94.1172 9.08 94.9572 9.33333 95.6239 9.84C96.3039 10.3467 96.8106 11.02 97.1439 11.86C97.4772 12.7 97.6439 13.6333 97.6439 14.66C97.6439 15.6867 97.4706 16.62 97.1239 17.46C96.7906 18.3 96.2839 18.9733 95.6039 19.48C94.9372 19.9867 94.0972 20.24 93.0839 20.24C92.5506 20.24 92.0506 20.1467 91.5839 19.96C91.1306 19.7733 90.7372 19.5067 90.4039 19.16C90.0839 18.8133 89.8572 18.4067 89.7239 17.94L89.9639 17.74V23H87.4039ZM92.4839 18.16C93.2572 18.16 93.8639 17.8533 94.3039 17.24C94.7572 16.6133 94.9839 15.7533 94.9839 14.66C94.9839 13.5667 94.7572 12.7133 94.3039 12.1C93.8639 11.4733 93.2572 11.16 92.4839 11.16C91.9639 11.16 91.5172 11.2933 91.1439 11.56C90.7706 11.8133 90.4772 12.2 90.2639 12.72C90.0639 13.24 89.9639 13.8867 89.9639 14.66C89.9639 15.4333 90.0639 16.08 90.2639 16.6C90.4639 17.12 90.7506 17.5133 91.1239 17.78C91.5106 18.0333 91.9639 18.16 92.4839 18.16ZM103.97 20.24C102.917 20.24 102.03 20.0867 101.31 19.78C100.604 19.4733 100.057 19.0467 99.6705 18.5C99.2838 17.9533 99.0638 17.3333 99.0105 16.64L101.63 16.52C101.724 17.08 101.957 17.5133 102.33 17.82C102.704 18.1267 103.257 18.28 103.99 18.28C104.59 18.28 105.057 18.1867 105.39 18C105.737 17.8 105.91 17.4933 105.91 17.08C105.91 16.84 105.85 16.64 105.73 16.48C105.61 16.32 105.384 16.18 105.05 16.06C104.717 15.94 104.224 15.82 103.57 15.7C102.477 15.5133 101.617 15.2867 100.99 15.02C100.364 14.74 99.9171 14.3933 99.6505 13.98C99.3971 13.5667 99.2705 13.0533 99.2705 12.44C99.2705 11.44 99.6505 10.6333 100.41 10.02C101.184 9.39333 102.31 9.08 103.79 9.08C104.75 9.08 105.557 9.24 106.21 9.56C106.864 9.86667 107.37 10.2933 107.73 10.84C108.104 11.3733 108.337 11.9867 108.43 12.68L105.85 12.8C105.784 12.44 105.664 12.1267 105.49 11.86C105.317 11.5933 105.084 11.3933 104.79 11.26C104.497 11.1133 104.15 11.04 103.75 11.04C103.15 11.04 102.697 11.16 102.39 11.4C102.084 11.64 101.93 11.96 101.93 12.36C101.93 12.64 101.997 12.8733 102.13 13.06C102.277 13.2467 102.51 13.4 102.83 13.52C103.15 13.6267 103.577 13.7267 104.11 13.82C105.23 13.9933 106.11 14.22 106.75 14.5C107.404 14.7667 107.864 15.1133 108.13 15.54C108.41 15.9533 108.55 16.4533 108.55 17.04C108.55 17.72 108.357 18.3 107.97 18.78C107.597 19.26 107.064 19.6267 106.37 19.88C105.69 20.12 104.89 20.24 103.97 20.24ZM114.068 20.24C112.988 20.24 112.128 19.8867 111.488 19.18C110.862 18.46 110.548 17.4667 110.548 16.2V9.32H113.108V15.56C113.108 16.4533 113.255 17.1133 113.548 17.54C113.855 17.9533 114.315 18.16 114.928 18.16C115.622 18.16 116.155 17.9333 116.528 17.48C116.915 17.0133 117.108 16.34 117.108 15.46V9.32H119.668V20H117.328L117.268 17.06L117.588 17.16C117.428 18.1733 117.048 18.94 116.448 19.46C115.848 19.98 115.055 20.24 114.068 20.24ZM122.482 20V9.32H124.802L124.882 11.94L124.642 11.82C124.762 11.2467 124.969 10.76 125.262 10.36C125.569 9.94667 125.935 9.63333 126.362 9.42C126.802 9.19333 127.282 9.08 127.802 9.08C128.709 9.08 129.442 9.34 130.002 9.86C130.562 10.3667 130.915 11.0667 131.062 11.96H130.722C130.842 11.3333 131.049 10.8133 131.342 10.4C131.635 9.97333 132.002 9.64667 132.442 9.42C132.895 9.19333 133.402 9.08 133.962 9.08C134.695 9.08 135.329 9.24 135.862 9.56C136.395 9.86667 136.802 10.32 137.082 10.92C137.375 11.52 137.522 12.26 137.522 13.14V20H134.962V13.8C134.962 12.92 134.809 12.26 134.502 11.82C134.209 11.38 133.755 11.16 133.142 11.16C132.729 11.16 132.375 11.2667 132.082 11.48C131.789 11.6933 131.562 12.0067 131.402 12.42C131.255 12.82 131.182 13.3067 131.182 13.88V20H128.802V13.88C128.802 13 128.669 12.3267 128.402 11.86C128.135 11.3933 127.675 11.16 127.022 11.16C126.609 11.16 126.255 11.2667 125.962 11.48C125.682 11.6933 125.455 12.0067 125.282 12.42C125.122 12.82 125.042 13.3067 125.042 13.88V20H122.482Z" fill="#AAAAAA"/>
</svg>
