<svg width="41" height="40" viewBox="0 0 41 40" fill="none" xmlns="http://www.w3.org/2000/svg">
<rect x="0.5" width="40" height="40" rx="6" fill="black"/>
<path d="M20.5241 19.9759C20.5336 19.9859 20.544 19.9908 20.5553 19.9908C23.7743 19.9917 27.0758 19.9906 30.46 19.9874C30.4652 19.9874 30.4704 19.9883 30.4752 19.9902C30.4801 19.9922 30.4845 19.9951 30.4882 19.9987C30.492 20.0024 30.4949 20.0068 30.4969 20.0116C30.499 20.0164 30.5 20.0216 30.5 20.0268C30.4864 22.6729 29.4478 25.2008 27.577 27.0729C25.7055 28.9458 23.1783 29.9858 20.5322 30C20.5271 30 20.522 29.999 20.5172 29.997C20.5124 29.995 20.5081 29.9921 20.5044 29.9885C20.5007 29.9848 20.4978 29.9805 20.4959 29.9757C20.4939 29.9709 20.4929 29.9658 20.4929 29.9606C20.4938 26.5765 20.4929 23.275 20.4902 20.056C20.4902 20.0447 20.4852 20.0343 20.4752 20.0248C20.4657 20.0148 20.4553 20.0099 20.444 20.0099C17.225 20.0089 13.9235 20.0101 10.5394 20.0132C10.5289 20.0132 10.5189 20.0091 10.5115 20.0017C10.5041 19.9943 10.5 19.9843 10.5 19.9739C10.5129 17.3272 11.5515 14.7992 13.4223 12.9271C15.2938 11.0549 17.821 10.0149 20.4671 10C20.4724 9.99991 20.4776 10.0009 20.4825 10.0029C20.4874 10.0048 20.4919 10.0078 20.4956 10.0115C20.4993 10.0153 20.5023 10.0197 20.5043 10.0246C20.5062 10.0295 20.5072 10.0348 20.5071 10.0401C20.5058 13.4242 20.5064 16.7257 20.5092 19.9447C20.5092 19.9555 20.5141 19.966 20.5241 19.9759Z" fill="white"/>
</svg>
