<svg width="140" height="26" viewBox="0 0 140 26" fill="none" xmlns="http://www.w3.org/2000/svg">
<path d="M35.0961 20V5.8H37.6961V19.2L36.2761 17.74H44.4361V20H35.0961ZM50.6103 20.24C49.557 20.24 48.6303 20.0133 47.8303 19.56C47.0436 19.0933 46.4303 18.44 45.9903 17.6C45.5636 16.76 45.3503 15.78 45.3503 14.66C45.3503 13.5267 45.5636 12.5467 45.9903 11.72C46.4303 10.88 47.0436 10.2333 47.8303 9.78C48.6303 9.31333 49.557 9.08 50.6103 9.08C51.6636 9.08 52.5836 9.31333 53.3703 9.78C54.157 10.2333 54.7636 10.88 55.1903 11.72C55.6303 12.5467 55.8503 13.5267 55.8503 14.66C55.8503 15.78 55.6303 16.76 55.1903 17.6C54.7636 18.44 54.157 19.0933 53.3703 19.56C52.5836 20.0133 51.6636 20.24 50.6103 20.24ZM50.6103 18.16C51.437 18.16 52.0703 17.8533 52.5103 17.24C52.9636 16.6267 53.1903 15.7667 53.1903 14.66C53.1903 13.5667 52.9636 12.7133 52.5103 12.1C52.0703 11.4733 51.437 11.16 50.6103 11.16C49.7836 11.16 49.1436 11.4733 48.6903 12.1C48.237 12.7133 48.0103 13.5667 48.0103 14.66C48.0103 15.7667 48.237 16.6267 48.6903 17.24C49.1436 17.8533 49.7836 18.16 50.6103 18.16ZM62.3858 23.24C61.4524 23.24 60.6524 23.1133 59.9858 22.86C59.3191 22.6067 58.7791 22.2467 58.3658 21.78C57.9658 21.3267 57.6858 20.8 57.5258 20.2L60.1658 20.02C60.2991 20.42 60.5258 20.7333 60.8458 20.96C61.1791 21.1867 61.6924 21.3 62.3858 21.3C63.1724 21.3 63.7791 21.12 64.2058 20.76C64.6324 20.4133 64.8458 19.8667 64.8458 19.12V17.76C64.5924 18.28 64.1858 18.7 63.6258 19.02C63.0658 19.3267 62.4391 19.48 61.7458 19.48C60.8658 19.48 60.0791 19.2667 59.3858 18.84C58.7058 18.4 58.1724 17.7933 57.7858 17.02C57.3991 16.2333 57.2058 15.3267 57.2058 14.3C57.2058 13.2733 57.3924 12.3733 57.7658 11.6C58.1524 10.8133 58.6858 10.2 59.3658 9.76C60.0458 9.30667 60.8258 9.08 61.7058 9.08C62.4791 9.08 63.1458 9.25333 63.7058 9.6C64.2658 9.94667 64.6724 10.4067 64.9258 10.98V9.32H67.4258V19.06C67.4258 19.9667 67.2124 20.7333 66.7858 21.36C66.3724 21.9867 65.7858 22.4533 65.0258 22.76C64.2791 23.08 63.3991 23.24 62.3858 23.24ZM62.3458 17.48C63.1058 17.48 63.7124 17.2 64.1658 16.64C64.6191 16.0667 64.8524 15.28 64.8658 14.28C64.8791 13.6133 64.7791 13.0467 64.5658 12.58C64.3658 12.1 64.0724 11.7333 63.6858 11.48C63.3124 11.2133 62.8658 11.08 62.3458 11.08C61.5591 11.08 60.9458 11.3733 60.5058 11.96C60.0791 12.5333 59.8658 13.3067 59.8658 14.28C59.8658 15.2533 60.0858 16.0333 60.5258 16.62C60.9791 17.1933 61.5858 17.48 62.3458 17.48ZM74.6728 20.24C73.6195 20.24 72.6928 20.0133 71.8928 19.56C71.1061 19.0933 70.4928 18.44 70.0528 17.6C69.6261 16.76 69.4128 15.78 69.4128 14.66C69.4128 13.5267 69.6261 12.5467 70.0528 11.72C70.4928 10.88 71.1061 10.2333 71.8928 9.78C72.6928 9.31333 73.6195 9.08 74.6728 9.08C75.7261 9.08 76.6461 9.31333 77.4328 9.78C78.2195 10.2333 78.8261 10.88 79.2528 11.72C79.6928 12.5467 79.9128 13.5267 79.9128 14.66C79.9128 15.78 79.6928 16.76 79.2528 17.6C78.8261 18.44 78.2195 19.0933 77.4328 19.56C76.6461 20.0133 75.7261 20.24 74.6728 20.24ZM74.6728 18.16C75.4995 18.16 76.1328 17.8533 76.5728 17.24C77.0261 16.6267 77.2528 15.7667 77.2528 14.66C77.2528 13.5667 77.0261 12.7133 76.5728 12.1C76.1328 11.4733 75.4995 11.16 74.6728 11.16C73.8461 11.16 73.2061 11.4733 72.7528 12.1C72.2995 12.7133 72.0728 13.5667 72.0728 14.66C72.0728 15.7667 72.2995 16.6267 72.7528 17.24C73.2061 17.8533 73.8461 18.16 74.6728 18.16ZM81.8883 20V9.32H84.4483V20H81.8883ZM81.8483 7.9V5.62H84.5083V7.9H81.8483ZM87.4156 23V9.32H89.8756L89.9356 11.6L89.6756 11.48C89.9423 10.6933 90.3756 10.1 90.9756 9.7C91.589 9.28667 92.3023 9.08 93.1156 9.08C94.129 9.08 94.969 9.33333 95.6356 9.84C96.3156 10.3467 96.8223 11.02 97.1556 11.86C97.489 12.7 97.6556 13.6333 97.6556 14.66C97.6556 15.6867 97.4823 16.62 97.1356 17.46C96.8023 18.3 96.2956 18.9733 95.6156 19.48C94.949 19.9867 94.109 20.24 93.0956 20.24C92.5623 20.24 92.0623 20.1467 91.5956 19.96C91.1423 19.7733 90.749 19.5067 90.4156 19.16C90.0956 18.8133 89.869 18.4067 89.7356 17.94L89.9756 17.74V23H87.4156ZM92.4956 18.16C93.269 18.16 93.8756 17.8533 94.3156 17.24C94.769 16.6133 94.9956 15.7533 94.9956 14.66C94.9956 13.5667 94.769 12.7133 94.3156 12.1C93.8756 11.4733 93.269 11.16 92.4956 11.16C91.9756 11.16 91.529 11.2933 91.1556 11.56C90.7823 11.8133 90.489 12.2 90.2756 12.72C90.0756 13.24 89.9756 13.8867 89.9756 14.66C89.9756 15.4333 90.0756 16.08 90.2756 16.6C90.4756 17.12 90.7623 17.5133 91.1356 17.78C91.5223 18.0333 91.9756 18.16 92.4956 18.16ZM103.982 20.24C102.929 20.24 102.042 20.0867 101.322 19.78C100.616 19.4733 100.069 19.0467 99.6822 18.5C99.2955 17.9533 99.0755 17.3333 99.0222 16.64L101.642 16.52C101.736 17.08 101.969 17.5133 102.342 17.82C102.716 18.1267 103.269 18.28 104.002 18.28C104.602 18.28 105.069 18.1867 105.402 18C105.749 17.8 105.922 17.4933 105.922 17.08C105.922 16.84 105.862 16.64 105.742 16.48C105.622 16.32 105.396 16.18 105.062 16.06C104.729 15.94 104.236 15.82 103.582 15.7C102.489 15.5133 101.629 15.2867 101.002 15.02C100.376 14.74 99.9289 14.3933 99.6622 13.98C99.4089 13.5667 99.2822 13.0533 99.2822 12.44C99.2822 11.44 99.6622 10.6333 100.422 10.02C101.196 9.39333 102.322 9.08 103.802 9.08C104.762 9.08 105.569 9.24 106.222 9.56C106.876 9.86667 107.382 10.2933 107.742 10.84C108.116 11.3733 108.349 11.9867 108.442 12.68L105.862 12.8C105.796 12.44 105.676 12.1267 105.502 11.86C105.329 11.5933 105.096 11.3933 104.802 11.26C104.509 11.1133 104.162 11.04 103.762 11.04C103.162 11.04 102.709 11.16 102.402 11.4C102.096 11.64 101.942 11.96 101.942 12.36C101.942 12.64 102.009 12.8733 102.142 13.06C102.289 13.2467 102.522 13.4 102.842 13.52C103.162 13.6267 103.589 13.7267 104.122 13.82C105.242 13.9933 106.122 14.22 106.762 14.5C107.416 14.7667 107.876 15.1133 108.142 15.54C108.422 15.9533 108.562 16.4533 108.562 17.04C108.562 17.72 108.369 18.3 107.982 18.78C107.609 19.26 107.076 19.6267 106.382 19.88C105.702 20.12 104.902 20.24 103.982 20.24ZM114.08 20.24C113 20.24 112.14 19.8867 111.5 19.18C110.873 18.46 110.56 17.4667 110.56 16.2V9.32H113.12V15.56C113.12 16.4533 113.267 17.1133 113.56 17.54C113.867 17.9533 114.327 18.16 114.94 18.16C115.633 18.16 116.167 17.9333 116.54 17.48C116.927 17.0133 117.12 16.34 117.12 15.46V9.32H119.68V20H117.34L117.28 17.06L117.6 17.16C117.44 18.1733 117.06 18.94 116.46 19.46C115.86 19.98 115.067 20.24 114.08 20.24ZM122.494 20V9.32H124.814L124.894 11.94L124.654 11.82C124.774 11.2467 124.98 10.76 125.274 10.36C125.58 9.94667 125.947 9.63333 126.374 9.42C126.814 9.19333 127.294 9.08 127.814 9.08C128.72 9.08 129.454 9.34 130.014 9.86C130.574 10.3667 130.927 11.0667 131.074 11.96H130.734C130.854 11.3333 131.06 10.8133 131.354 10.4C131.647 9.97333 132.014 9.64667 132.454 9.42C132.907 9.19333 133.414 9.08 133.974 9.08C134.707 9.08 135.34 9.24 135.874 9.56C136.407 9.86667 136.814 10.32 137.094 10.92C137.387 11.52 137.534 12.26 137.534 13.14V20H134.974V13.8C134.974 12.92 134.82 12.26 134.514 11.82C134.22 11.38 133.767 11.16 133.154 11.16C132.74 11.16 132.387 11.2667 132.094 11.48C131.8 11.6933 131.574 12.0067 131.414 12.42C131.267 12.82 131.194 13.3067 131.194 13.88V20H128.814V13.88C128.814 13 128.68 12.3267 128.414 11.86C128.147 11.3933 127.687 11.16 127.034 11.16C126.62 11.16 126.267 11.2667 125.974 11.48C125.694 11.6933 125.467 12.0067 125.294 12.42C125.134 12.82 125.054 13.3067 125.054 13.88V20H122.494Z" fill="#AAAAAA"/>
<path d="M12.7834 13.7107C12.7951 13.7229 12.8078 13.729 12.8217 13.729C16.7649 13.7301 20.8093 13.7287 24.9548 13.7249C24.9613 13.7247 24.9676 13.7259 24.9736 13.7283C24.9795 13.7307 24.9849 13.7342 24.9895 13.7387C24.9941 13.7432 24.9977 13.7485 25.0002 13.7544C25.0026 13.7603 25.0039 13.7667 25.0039 13.7731C24.9873 17.0145 23.715 20.1112 21.4232 22.4046C19.1307 24.6988 16.0348 25.9728 12.7934 25.9902C12.7871 25.9902 12.7808 25.989 12.7749 25.9866C12.7691 25.9841 12.7638 25.9806 12.7593 25.9761C12.7548 25.9716 12.7513 25.9663 12.7488 25.9605C12.7464 25.9546 12.7452 25.9483 12.7452 25.942C12.7463 21.7964 12.7452 17.7521 12.7418 13.8088C12.7418 13.795 12.7358 13.7822 12.7236 13.7706C12.7119 13.7584 12.6992 13.7523 12.6853 13.7523C8.74209 13.7512 4.6977 13.7526 0.552138 13.7565C0.539346 13.7565 0.527076 13.7514 0.518031 13.7423C0.508986 13.7333 0.503906 13.721 0.503906 13.7082C0.519706 10.466 1.79198 7.36931 4.08373 5.07589C6.37632 2.78247 9.47219 1.50854 12.7136 1.49024C12.7201 1.49013 12.7265 1.49132 12.7325 1.49375C12.7385 1.49617 12.7439 1.49978 12.7485 1.50436C12.7531 1.50894 12.7567 1.51439 12.7591 1.52039C12.7616 1.5264 12.7627 1.53283 12.7626 1.5393C12.761 5.68486 12.7618 9.72925 12.7651 13.6725C12.7651 13.6858 12.7712 13.6985 12.7834 13.7107Z" fill="#AAAAAA"/>
</svg>
