<svg width="140" height="26" viewBox="0 0 140 26" fill="none" xmlns="http://www.w3.org/2000/svg">
<path d="M12.8642 1.25293C13.4227 1.25293 13.7317 1.25324 13.791 1.25386C13.8068 1.25386 13.822 1.26007 13.8333 1.27117C13.8445 1.28227 13.851 1.29736 13.8512 1.31317C13.8679 2.96939 14.8327 4.39945 16.3656 5.03432C17.8994 5.67011 19.5926 5.34016 20.7761 4.18165C20.7874 4.17061 20.8025 4.16443 20.8183 4.16443C20.834 4.16443 20.8492 4.17061 20.8604 4.18165C20.9024 4.22366 21.1209 4.44208 21.5157 4.83691C21.9105 5.23173 22.1289 5.45015 22.1709 5.49216C22.1819 5.50342 22.1881 5.51856 22.1881 5.53433C22.1881 5.5501 22.1819 5.56524 22.1709 5.5765C21.0124 6.76004 20.6825 8.45332 21.3173 9.98719C21.9531 11.5201 23.3831 12.485 25.0393 12.5026C25.0549 12.5028 25.0699 12.5091 25.0809 12.5202C25.092 12.5313 25.0983 12.5462 25.0986 12.5619C25.0992 12.6212 25.0995 12.9301 25.0995 13.4887C25.0995 14.0472 25.0992 14.3559 25.0986 14.4146C25.0986 14.4225 25.097 14.4303 25.094 14.4376C25.091 14.4449 25.0865 14.4516 25.0809 14.4572C25.0753 14.4628 25.0687 14.4672 25.0614 14.4702C25.0541 14.4733 25.0462 14.4748 25.0383 14.4748C23.3831 14.4924 21.9531 15.4563 21.3173 16.9902C20.6825 18.5231 21.0115 20.2164 22.17 21.3999C22.181 21.4112 22.1872 21.4263 22.1872 21.4421C22.1872 21.4579 22.181 21.473 22.17 21.4843C22.1286 21.5269 21.9105 21.7456 21.5157 22.1405C21.1209 22.5353 20.9021 22.7534 20.8595 22.7948C20.8482 22.8058 20.8331 22.812 20.8173 22.812C20.8016 22.812 20.7864 22.8058 20.7752 22.7948C19.5926 21.6363 17.8994 21.3073 16.3656 21.9421C14.8317 22.577 13.8679 24.0071 13.8503 25.6633C13.8503 25.6793 13.8439 25.6946 13.8327 25.7059C13.8214 25.7172 13.806 25.7235 13.7901 25.7235C13.7314 25.7235 13.4227 25.7235 12.8642 25.7235C12.3057 25.7235 11.9967 25.7232 11.9374 25.7226C11.9216 25.7226 11.9064 25.7164 11.8952 25.7053C11.8839 25.6942 11.8774 25.6791 11.8772 25.6633C11.8605 24.0071 10.8957 22.577 9.36285 21.9421C7.82903 21.3063 6.13581 21.6363 4.95232 22.7948C4.94106 22.8058 4.92592 22.812 4.91015 22.812C4.89438 22.812 4.87924 22.8058 4.86798 22.7948C4.82597 22.7528 4.60756 22.5344 4.21275 22.1395C3.81795 21.7447 3.59954 21.5263 3.55752 21.4843C3.54648 21.473 3.5403 21.4579 3.5403 21.4421C3.5403 21.4263 3.54648 21.4112 3.55752 21.3999C4.71599 20.2164 5.04592 18.5231 4.41108 16.9892C3.77531 15.4563 2.3453 14.4915 0.689149 14.4748C0.673333 14.4746 0.658246 14.4681 0.647149 14.4568C0.636051 14.4456 0.629832 14.4304 0.629834 14.4146C0.629216 14.3553 0.628906 14.0463 0.628906 13.4878C0.628906 12.9292 0.629216 12.6206 0.629834 12.5619C0.629834 12.5459 0.63618 12.5306 0.647477 12.5193C0.658774 12.508 0.6741 12.5016 0.690077 12.5016C2.3453 12.484 3.77531 11.5201 4.41108 9.98627C5.04592 8.45332 4.71692 6.76004 3.55845 5.5765C3.54741 5.56524 3.54122 5.5501 3.54122 5.53433C3.54122 5.51856 3.54741 5.50342 3.55845 5.49216C3.59984 5.44953 3.81795 5.2308 4.21275 4.83598C4.60756 4.44116 4.82627 4.22305 4.86891 4.18165C4.88017 4.17061 4.89531 4.16443 4.91108 4.16443C4.92684 4.16443 4.94199 4.17061 4.95325 4.18165C6.13581 5.34016 7.82903 5.66918 9.36285 5.03432C10.8967 4.39945 11.8605 2.96939 11.8781 1.31317C11.8784 1.29736 11.8848 1.28227 11.8961 1.27117C11.9074 1.26007 11.9225 1.25386 11.9383 1.25386C11.997 1.25324 12.3057 1.25293 12.8642 1.25293Z" fill="#AAAAAA"/>
<path d="M34.9691 20V5.8H37.5691V19.2L36.1491 17.74H44.3091V20H34.9691ZM50.4834 20.24C49.43 20.24 48.5034 20.0133 47.7034 19.56C46.9167 19.0933 46.3034 18.44 45.8634 17.6C45.4367 16.76 45.2234 15.78 45.2234 14.66C45.2234 13.5267 45.4367 12.5467 45.8634 11.72C46.3034 10.88 46.9167 10.2333 47.7034 9.78C48.5034 9.31333 49.43 9.08 50.4834 9.08C51.5367 9.08 52.4567 9.31333 53.2434 9.78C54.03 10.2333 54.6367 10.88 55.0634 11.72C55.5034 12.5467 55.7234 13.5267 55.7234 14.66C55.7234 15.78 55.5034 16.76 55.0634 17.6C54.6367 18.44 54.03 19.0933 53.2434 19.56C52.4567 20.0133 51.5367 20.24 50.4834 20.24ZM50.4834 18.16C51.31 18.16 51.9434 17.8533 52.3834 17.24C52.8367 16.6267 53.0634 15.7667 53.0634 14.66C53.0634 13.5667 52.8367 12.7133 52.3834 12.1C51.9434 11.4733 51.31 11.16 50.4834 11.16C49.6567 11.16 49.0167 11.4733 48.5634 12.1C48.11 12.7133 47.8834 13.5667 47.8834 14.66C47.8834 15.7667 48.11 16.6267 48.5634 17.24C49.0167 17.8533 49.6567 18.16 50.4834 18.16ZM62.2588 23.24C61.3255 23.24 60.5255 23.1133 59.8588 22.86C59.1922 22.6067 58.6522 22.2467 58.2388 21.78C57.8388 21.3267 57.5588 20.8 57.3988 20.2L60.0388 20.02C60.1722 20.42 60.3988 20.7333 60.7188 20.96C61.0522 21.1867 61.5655 21.3 62.2588 21.3C63.0455 21.3 63.6522 21.12 64.0788 20.76C64.5055 20.4133 64.7188 19.8667 64.7188 19.12V17.76C64.4655 18.28 64.0588 18.7 63.4988 19.02C62.9388 19.3267 62.3122 19.48 61.6188 19.48C60.7388 19.48 59.9522 19.2667 59.2588 18.84C58.5788 18.4 58.0455 17.7933 57.6588 17.02C57.2722 16.2333 57.0788 15.3267 57.0788 14.3C57.0788 13.2733 57.2655 12.3733 57.6388 11.6C58.0255 10.8133 58.5588 10.2 59.2388 9.76C59.9188 9.30667 60.6988 9.08 61.5788 9.08C62.3522 9.08 63.0188 9.25333 63.5788 9.6C64.1388 9.94667 64.5455 10.4067 64.7988 10.98V9.32H67.2988V19.06C67.2988 19.9667 67.0855 20.7333 66.6588 21.36C66.2455 21.9867 65.6588 22.4533 64.8988 22.76C64.1522 23.08 63.2722 23.24 62.2588 23.24ZM62.2188 17.48C62.9788 17.48 63.5855 17.2 64.0388 16.64C64.4922 16.0667 64.7255 15.28 64.7388 14.28C64.7522 13.6133 64.6522 13.0467 64.4388 12.58C64.2388 12.1 63.9455 11.7333 63.5588 11.48C63.1855 11.2133 62.7388 11.08 62.2188 11.08C61.4322 11.08 60.8188 11.3733 60.3788 11.96C59.9522 12.5333 59.7388 13.3067 59.7388 14.28C59.7388 15.2533 59.9588 16.0333 60.3988 16.62C60.8522 17.1933 61.4588 17.48 62.2188 17.48ZM74.5459 20.24C73.4925 20.24 72.5659 20.0133 71.7659 19.56C70.9792 19.0933 70.3659 18.44 69.9259 17.6C69.4992 16.76 69.2859 15.78 69.2859 14.66C69.2859 13.5267 69.4992 12.5467 69.9259 11.72C70.3659 10.88 70.9792 10.2333 71.7659 9.78C72.5659 9.31333 73.4925 9.08 74.5459 9.08C75.5992 9.08 76.5192 9.31333 77.3059 9.78C78.0925 10.2333 78.6992 10.88 79.1259 11.72C79.5659 12.5467 79.7859 13.5267 79.7859 14.66C79.7859 15.78 79.5659 16.76 79.1259 17.6C78.6992 18.44 78.0925 19.0933 77.3059 19.56C76.5192 20.0133 75.5992 20.24 74.5459 20.24ZM74.5459 18.16C75.3725 18.16 76.0059 17.8533 76.4459 17.24C76.8992 16.6267 77.1259 15.7667 77.1259 14.66C77.1259 13.5667 76.8992 12.7133 76.4459 12.1C76.0059 11.4733 75.3725 11.16 74.5459 11.16C73.7192 11.16 73.0792 11.4733 72.6259 12.1C72.1725 12.7133 71.9459 13.5667 71.9459 14.66C71.9459 15.7667 72.1725 16.6267 72.6259 17.24C73.0792 17.8533 73.7192 18.16 74.5459 18.16ZM81.7613 20V9.32H84.3213V20H81.7613ZM81.7213 7.9V5.62H84.3813V7.9H81.7213ZM87.2887 23V9.32H89.7487L89.8087 11.6L89.5487 11.48C89.8153 10.6933 90.2487 10.1 90.8487 9.7C91.462 9.28667 92.1753 9.08 92.9887 9.08C94.002 9.08 94.842 9.33333 95.5087 9.84C96.1887 10.3467 96.6953 11.02 97.0287 11.86C97.362 12.7 97.5287 13.6333 97.5287 14.66C97.5287 15.6867 97.3553 16.62 97.0087 17.46C96.6753 18.3 96.1687 18.9733 95.4887 19.48C94.822 19.9867 93.982 20.24 92.9687 20.24C92.4353 20.24 91.9353 20.1467 91.4687 19.96C91.0153 19.7733 90.622 19.5067 90.2887 19.16C89.9687 18.8133 89.742 18.4067 89.6087 17.94L89.8487 17.74V23H87.2887ZM92.3687 18.16C93.142 18.16 93.7487 17.8533 94.1887 17.24C94.642 16.6133 94.8687 15.7533 94.8687 14.66C94.8687 13.5667 94.642 12.7133 94.1887 12.1C93.7487 11.4733 93.142 11.16 92.3687 11.16C91.8487 11.16 91.402 11.2933 91.0287 11.56C90.6553 11.8133 90.362 12.2 90.1487 12.72C89.9487 13.24 89.8487 13.8867 89.8487 14.66C89.8487 15.4333 89.9487 16.08 90.1487 16.6C90.3487 17.12 90.6353 17.5133 91.0087 17.78C91.3953 18.0333 91.8487 18.16 92.3687 18.16ZM103.855 20.24C102.802 20.24 101.915 20.0867 101.195 19.78C100.489 19.4733 99.9419 19.0467 99.5552 18.5C99.1686 17.9533 98.9486 17.3333 98.8952 16.64L101.515 16.52C101.609 17.08 101.842 17.5133 102.215 17.82C102.589 18.1267 103.142 18.28 103.875 18.28C104.475 18.28 104.942 18.1867 105.275 18C105.622 17.8 105.795 17.4933 105.795 17.08C105.795 16.84 105.735 16.64 105.615 16.48C105.495 16.32 105.269 16.18 104.935 16.06C104.602 15.94 104.109 15.82 103.455 15.7C102.362 15.5133 101.502 15.2867 100.875 15.02C100.249 14.74 99.8019 14.3933 99.5352 13.98C99.2819 13.5667 99.1552 13.0533 99.1552 12.44C99.1552 11.44 99.5352 10.6333 100.295 10.02C101.069 9.39333 102.195 9.08 103.675 9.08C104.635 9.08 105.442 9.24 106.095 9.56C106.749 9.86667 107.255 10.2933 107.615 10.84C107.989 11.3733 108.222 11.9867 108.315 12.68L105.735 12.8C105.669 12.44 105.549 12.1267 105.375 11.86C105.202 11.5933 104.969 11.3933 104.675 11.26C104.382 11.1133 104.035 11.04 103.635 11.04C103.035 11.04 102.582 11.16 102.275 11.4C101.969 11.64 101.815 11.96 101.815 12.36C101.815 12.64 101.882 12.8733 102.015 13.06C102.162 13.2467 102.395 13.4 102.715 13.52C103.035 13.6267 103.462 13.7267 103.995 13.82C105.115 13.9933 105.995 14.22 106.635 14.5C107.289 14.7667 107.749 15.1133 108.015 15.54C108.295 15.9533 108.435 16.4533 108.435 17.04C108.435 17.72 108.242 18.3 107.855 18.78C107.482 19.26 106.949 19.6267 106.255 19.88C105.575 20.12 104.775 20.24 103.855 20.24ZM113.953 20.24C112.873 20.24 112.013 19.8867 111.373 19.18C110.747 18.46 110.433 17.4667 110.433 16.2V9.32H112.993V15.56C112.993 16.4533 113.14 17.1133 113.433 17.54C113.74 17.9533 114.2 18.16 114.813 18.16C115.507 18.16 116.04 17.9333 116.413 17.48C116.8 17.0133 116.993 16.34 116.993 15.46V9.32H119.553V20H117.213L117.153 17.06L117.473 17.16C117.313 18.1733 116.933 18.94 116.333 19.46C115.733 19.98 114.94 20.24 113.953 20.24ZM122.367 20V9.32H124.687L124.767 11.94L124.527 11.82C124.647 11.2467 124.853 10.76 125.147 10.36C125.453 9.94667 125.82 9.63333 126.247 9.42C126.687 9.19333 127.167 9.08 127.687 9.08C128.593 9.08 129.327 9.34 129.887 9.86C130.447 10.3667 130.8 11.0667 130.947 11.96H130.607C130.727 11.3333 130.933 10.8133 131.227 10.4C131.52 9.97333 131.887 9.64667 132.327 9.42C132.78 9.19333 133.287 9.08 133.847 9.08C134.58 9.08 135.213 9.24 135.747 9.56C136.28 9.86667 136.687 10.32 136.967 10.92C137.26 11.52 137.407 12.26 137.407 13.14V20H134.847V13.8C134.847 12.92 134.693 12.26 134.387 11.82C134.093 11.38 133.64 11.16 133.027 11.16C132.613 11.16 132.26 11.2667 131.967 11.48C131.673 11.6933 131.447 12.0067 131.287 12.42C131.14 12.82 131.067 13.3067 131.067 13.88V20H128.687V13.88C128.687 13 128.553 12.3267 128.287 11.86C128.02 11.3933 127.56 11.16 126.907 11.16C126.493 11.16 126.14 11.2667 125.847 11.48C125.567 11.6933 125.34 12.0067 125.167 12.42C125.007 12.82 124.927 13.3067 124.927 13.88V20H122.367Z" fill="#AAAAAA"/>
</svg>
