<svg width="41" height="40" viewBox="0 0 41 40" fill="none" xmlns="http://www.w3.org/2000/svg">
<rect x="0.5" width="40" height="40" rx="6" fill="black"/>
<path d="M23.8393 19.9934C23.8403 20.7018 23.8406 21.7883 23.84 23.2528C23.84 23.2609 23.8416 23.2689 23.8447 23.2763C23.8478 23.2838 23.8523 23.2906 23.858 23.2963C23.8638 23.302 23.8705 23.3065 23.878 23.3096C23.8855 23.3127 23.8934 23.3143 23.9015 23.3143C25.1368 23.3184 26.8369 23.3174 29.0019 23.3112C29.6773 23.3088 30.2485 23.6993 30.4407 24.3528C30.4802 24.4871 30.4999 24.7205 30.4999 25.0529C30.5004 25.8401 30.4991 26.9971 30.496 28.5239C30.4944 29.3617 29.8548 29.9957 29.0205 29.9957C27.0159 29.9957 25.8846 29.997 25.6268 29.9996C25.2081 30.0043 24.907 29.969 24.7233 29.8938C24.356 29.7434 24.0875 29.4771 23.9179 29.0949C23.8364 28.9118 23.8004 28.5701 23.8097 28.0696C23.8164 27.69 23.8172 26.1347 23.812 23.4037C23.812 23.3899 23.8065 23.3766 23.7968 23.3669C23.787 23.3571 23.7737 23.3516 23.7599 23.3516L17.2518 23.3306C17.2433 23.3305 17.235 23.3321 17.2271 23.3353C17.2193 23.3385 17.2122 23.3432 17.2062 23.3492C17.2002 23.3552 17.1954 23.3624 17.1921 23.3703C17.1889 23.3782 17.1872 23.3866 17.1872 23.3952C17.1841 26.2771 17.1846 27.788 17.1888 27.928C17.2059 28.5156 17.168 28.9121 17.0751 29.1174C16.891 29.5271 16.5758 29.8015 16.1296 29.9405C15.8713 30.0206 15.4853 29.9949 15.1296 29.9965C14.2056 30.0006 13.1491 29.9991 11.96 29.9918C11.241 29.9879 10.634 29.4901 10.5227 28.7791C10.5076 28.6836 10.5004 28.4399 10.5009 28.0478C10.503 26.8644 10.5027 25.9363 10.5001 25.2637C10.4986 24.8716 10.5211 24.5472 10.6892 24.2306C10.8936 23.8469 11.1937 23.5764 11.5896 23.4193C11.7873 23.341 12.1019 23.3049 12.5336 23.3112C12.9761 23.3179 14.4944 23.3184 17.0884 23.3127C17.1064 23.3127 17.1237 23.3056 17.1365 23.2929C17.1493 23.2803 17.1566 23.2631 17.1568 23.245C17.161 22.1746 17.1623 21.0952 17.1607 20.0066C17.1597 19.2982 17.1594 18.2115 17.16 16.7464C17.1598 16.7302 17.1532 16.7148 17.1417 16.7035C17.1302 16.6921 17.1147 16.6857 17.0985 16.6857C15.8632 16.6816 14.1631 16.6826 11.9981 16.6888C11.3227 16.6912 10.7515 16.3007 10.5593 15.6472C10.5198 15.5129 10.5001 15.2795 10.5001 14.9471C10.4996 14.1599 10.5009 13.0029 10.504 11.4761C10.5056 10.6383 11.1452 10.0043 11.9795 10.0043C13.9841 10.0043 15.1154 10.003 15.3732 10.0004C15.7919 9.99574 16.093 10.031 16.2767 10.1062C16.644 10.2566 16.9125 10.5229 17.0821 10.9051C17.1636 11.0882 17.1996 11.4299 17.1903 11.9304C17.1836 12.31 17.1828 13.8653 17.188 16.5963C17.188 16.6101 17.1935 16.6233 17.2032 16.6331C17.213 16.6429 17.2263 16.6484 17.2401 16.6484L23.7482 16.6694C23.7567 16.6695 23.765 16.6679 23.7729 16.6647C23.7807 16.6615 23.7878 16.6568 23.7938 16.6508C23.7998 16.6448 23.8046 16.6376 23.8079 16.6297C23.8111 16.6218 23.8128 16.6134 23.8128 16.6048C23.8159 13.7229 23.8154 12.212 23.8112 12.072C23.7941 11.4844 23.832 11.0879 23.9249 10.8826C24.109 10.4729 24.4242 10.1985 24.8704 10.0595C25.1287 9.97941 25.5147 10.0051 25.8704 10.0035C26.7944 9.99937 27.8509 10.0009 29.04 10.0082C29.759 10.0121 30.366 10.5099 30.4773 11.2209C30.4924 11.3164 30.4996 11.5601 30.4991 11.9522C30.497 13.1356 30.4973 14.0637 30.4999 14.7363C30.5014 15.1284 30.4789 15.4527 30.3108 15.7694C30.1064 16.1531 29.8063 16.4236 29.4104 16.5807C29.2127 16.659 28.8981 16.6951 28.4664 16.6888C28.0239 16.6821 26.5056 16.6816 23.9116 16.6873C23.8936 16.6873 23.8763 16.6944 23.8635 16.7071C23.8507 16.7197 23.8434 16.7369 23.8432 16.755C23.839 17.8254 23.8377 18.9048 23.8393 19.9934Z" fill="white"/>
</svg>
